<?xml version="1.0" standalone="no"?>
<!DOCTYPE svg PUBLIC "-//W3C//DTD SVG 1.1//EN" "http://www.w3.org/Graphics/SVG/1.1/DTD/svg11.dtd" >
<svg xmlns="http://www.w3.org/2000/svg">
<metadata>Generated by IcoMoon</metadata>
<defs>
<font id="senfify-icon" horiz-adv-x="1024">
<font-face units-per-em="1024" ascent="960" descent="-64" />
<missing-glyph horiz-adv-x="1024" />
<glyph unicode="&#x20;" horiz-adv-x="512" d="" />
<glyph unicode="&#xe900;" glyph-name="clock" d="M277.789 806.801c12.561 10.048 14.596 28.376 4.548 40.935s-28.375 14.596-40.935 4.548l-97.079-77.664c-12.561-10.048-14.596-28.375-4.548-40.935s28.375-14.596 40.935-4.548l97.079 77.663zM782.597 852.284c-12.558 10.048-30.887 8.011-40.935-4.548-10.046-12.56-8.010-30.888 4.551-40.935l97.079-77.663c12.558-10.048 30.887-8.011 40.935 4.548 10.046 12.561 8.010 30.888-4.551 40.935l-97.079 77.664zM541.124 606.261c0 16.085-13.039 29.124-29.124 29.124s-29.124-13.039-29.124-29.124v-194.156c0.004-27.683 33.473-41.549 53.047-21.975l79.046 79.042c11.373 11.373 11.373 29.816 0 41.189s-29.815 11.373-41.189 0l-32.657-32.657v128.557zM512 829.542c-230.545 0-417.439-186.894-417.439-417.437 0-230.546 186.894-417.439 417.439-417.439s417.439 186.892 417.439 417.439c0 230.543-186.892 417.437-417.439 417.437zM152.809 412.105c0 198.375 160.816 359.189 359.191 359.189s359.191-160.816 359.191-359.189c0-198.379-160.816-359.191-359.191-359.191s-359.191 160.813-359.191 359.191z" />
<glyph unicode="&#xe901;" glyph-name="angle-down" d="M748.060 489.472c12.442 12.553 12.352 32.815-0.201 45.256s-32.815 12.351-45.257-0.202l-74.551-75.22c-30.255-30.528-51.081-51.469-68.723-65.638-17.139-13.764-28.147-18.487-38.007-19.742-6.191-0.789-12.454-0.789-18.645 0-9.86 1.254-20.868 5.978-38.007 19.742-17.643 14.17-38.467 35.11-68.723 65.638l-74.552 75.22c-12.441 12.553-32.702 12.643-45.254 0.202s-12.643-32.704-0.202-45.256l75.895-76.574c28.585-28.843 51.947-52.412 72.762-69.129 21.647-17.387 43.616-29.969 69.988-33.331 11.567-1.472 23.266-1.472 34.833 0 26.372 3.362 48.341 15.945 69.986 33.331 20.817 16.717 44.181 40.286 72.764 69.129l75.895 76.574z" />
<glyph unicode="&#xe902;" glyph-name="website" d="M349.272 426.667v0zM674.73 426.667v0zM512.001 263.938v0zM596.188 28.567v0zM427.814 28.567v0zM135.227 580.397v0zM113.9 342.48v0zM427.814 824.767v0zM596.188 824.767v0zM885.496 578.929v0zM135.227 580.397l-28.246 11.536-9.813-24.027 22.141-13.54 15.918 26.030zM138.456 578.944v0zM860.57 568.757c17.876-43.801 27.741-91.754 27.741-142.090h61.023c0 58.374-11.452 114.152-32.265 165.147l-56.499-23.057zM888.311 426.667c0-26.741-2.782-52.798-8.067-77.907l59.713-12.562c6.151 29.214 9.378 59.481 9.378 90.469h-61.023zM880.244 348.76c-30.573-145.284-145.052-259.764-290.336-290.336l12.562-59.713c168.961 35.552 301.934 168.526 337.487 337.487l-59.713 12.562zM589.908 58.424c-25.109-5.284-51.166-8.067-77.907-8.067v-61.023c30.987 0 61.255 3.226 90.469 9.378l-12.562 59.713zM512.001 50.357c-26.741 0-52.798 2.782-77.907 8.067l-12.564-59.713c29.216-6.151 59.483-9.378 90.471-9.378v61.023zM135.691 426.667c0 50.373 9.881 98.364 27.783 142.193l-56.493 23.073c-20.842-51.029-32.314-106.847-32.314-165.267h61.023zM434.094 58.424c-145.283 30.573-259.766 145.052-290.336 290.336l-59.716-12.562c35.552-168.961 168.53-301.934 337.487-337.487l12.564 59.713zM143.759 348.76c-5.283 25.109-8.067 51.166-8.067 77.907h-61.023c0-30.987 3.228-61.255 9.376-90.469l59.716 12.562zM163.474 568.86c46.594 114.078 147.592 200.161 270.621 226.049l-12.564 59.716c-143.152-30.123-260.419-130.161-314.549-262.691l56.493-23.073zM434.094 794.909c25.109 5.283 51.166 8.067 77.907 8.067v61.023c-30.987 0-61.255-3.228-90.471-9.376l12.564-59.716zM512.001 802.977c26.741 0 52.798-2.784 77.907-8.067l12.562 59.715c-29.214 6.148-59.481 9.376-90.469 9.376v-61.023zM589.908 794.909c123.068-25.896 224.090-112.022 270.663-226.152l56.499 23.057c-54.108 132.59-171.402 232.679-314.6 262.811l-12.562-59.715zM567.121 815.492c11.224-35.18 52.777-170.486 69.807-294.802l60.462 8.283c-17.79 129.849-60.738 269.364-72.133 305.070l-58.135-18.55zM636.928 520.69c4.564-33.317 7.29-65.313 7.29-94.023h61.023c0 32.318-3.047 67.223-7.852 102.305l-60.462-8.283zM876.644 608.127c-44.649-13.541-128.511-37.325-215.021-53.291l11.074-60.010c89.729 16.56 176.044 41.071 221.656 54.905l-17.709 58.396zM661.621 554.836c-52.48-9.686-104.883-16.293-149.62-16.293v-61.023c50.007 0 106.502 7.303 160.694 17.306l-11.074 60.010zM644.218 426.667c0-42.533-5.972-92.027-14.906-141.976l60.072-10.74c9.243 51.691 15.857 105.127 15.857 152.716h-61.023zM629.312 284.691c-19.572-109.484-52.46-216.352-62.191-246.848l58.135-18.551c9.988 31.296 43.839 141.183 64.127 254.659l-60.072 10.74zM900.825 371.547c-30.495-9.731-137.363-42.619-246.848-62.191l10.74-60.072c113.475 20.288 223.361 54.14 254.659 64.127l-18.551 58.135zM653.977 309.356c-49.949-8.934-99.443-14.906-141.976-14.906v-61.023c47.59 0 101.026 6.615 152.716 15.857l-10.74 60.072zM512.001 294.45c-42.533 0-92.029 5.972-141.978 14.906l-10.74-60.072c51.692-9.243 105.129-15.857 152.718-15.857v61.023zM370.023 309.356c-109.484 19.572-216.352 52.46-246.848 62.191l-18.55-58.135c31.296-9.988 141.185-43.839 254.657-64.127l10.74 60.072zM318.76 426.667c0-47.59 6.614-101.026 15.857-152.716l60.071 10.74c-8.931 49.949-14.904 99.443-14.904 141.976h-61.023zM334.618 273.951c20.288-113.475 54.142-223.361 64.128-254.659l58.135 18.551c-9.731 30.495-42.617 137.363-62.192 246.848l-60.071-10.74zM398.746 834.042c-11.393-35.705-54.343-175.222-72.131-305.070l60.459-8.283c17.031 124.317 58.584 259.622 69.808 294.802l-58.135 18.55zM326.614 528.972c-4.806-35.082-7.853-69.987-7.853-102.305h61.023c0 28.71 2.724 60.706 7.288 94.023l-60.459 8.283zM512.001 538.543c-44.739 0-97.139 6.607-149.62 16.293l-11.076-60.010c54.194-10.004 110.689-17.306 160.695-17.306v61.023zM362.381 554.836c-86.544 15.972-170.432 39.766-215.068 53.306l-17.713-58.396c45.6-13.831 131.947-38.354 221.706-54.92l11.076 60.010zM874.759 607.364c0.541 0.28 1.184 0.551 1.883 0.763l17.709-58.396c3.010 0.912 5.842 2.081 8.527 3.475l-28.119 54.158zM119.309 554.367c3.162-1.934 6.593-3.5 10.291-4.622l17.713 58.396c1.41-0.427 2.71-1.028 3.833-1.714l-31.837-52.060z" />
<glyph unicode="&#xe903;" glyph-name="folder" d="M215.939 19.409v0zM168.743 66.607v0zM855.258 66.607v0zM808.060 19.409v0zM808.060 705.924v0zM855.258 658.727v0zM215.939 705.924v0zM168.743 658.727v0zM663.258 864.225v0zM800.226 727.256v0zM360.745 864.225v0zM223.777 727.256v0zM341.333 266.666c-17.673 0-32-14.327-32-32s14.327-32 32-32v64zM682.667 202.666c17.673 0 32 14.327 32 32s-14.327 32-32 32v-64zM512 10.666c-80.708 0-138.667 0.043-183.55 4.907-44.284 4.8-72.026 13.978-93.701 29.726l-37.618-51.776c34.403-24.998 74.697-36.19 124.427-41.579 49.131-5.322 111.16-5.278 190.444-5.278v64zM96 362.665c0-79.283-0.044-141.311 5.279-190.443 5.388-49.732 16.58-90.022 41.575-124.429l51.777 37.619c-15.748 21.675-24.927 49.417-29.725 93.7-4.863 44.885-4.907 102.844-4.907 183.552h-64zM234.748 45.299c-15.394 11.183-28.932 24.721-40.116 40.115l-51.777-37.619c15.132-20.826 33.448-39.142 54.275-54.272l37.618 51.776zM864 362.665c0-80.708-0.043-138.667-4.907-183.552-4.8-44.284-13.978-72.026-29.726-93.7l51.776-37.619c24.998 34.406 36.19 74.697 41.579 124.429 5.322 49.131 5.278 111.159 5.278 190.443h-64zM512-53.334c79.283 0 141.311-0.043 190.443 5.278 49.732 5.388 90.022 16.58 124.429 41.579l-37.619 51.776c-21.675-15.748-49.417-24.926-93.7-29.726-44.885-4.864-102.844-4.907-183.552-4.907v-64zM829.367 85.414c-11.183-15.394-24.721-28.932-40.115-40.115l37.619-51.776c20.826 15.13 39.142 33.447 54.272 54.272l-51.776 37.619zM928 362.665c0 79.283 0.043 141.313-5.278 190.444-5.388 49.73-16.58 90.023-41.579 124.427l-51.776-37.618c15.748-21.675 24.926-49.417 29.726-93.701 4.864-44.883 4.907-102.842 4.907-183.55h64zM789.252 680.035c15.394-11.185 28.932-24.722 40.115-40.116l51.776 37.618c-15.13 20.827-33.447 39.143-54.272 54.275l-37.619-51.777zM160 362.665c0 80.708 0.044 138.667 4.907 183.55 4.798 44.284 13.977 72.026 29.725 93.701l-51.777 37.618c-24.995-34.403-36.187-74.697-41.575-124.427-5.323-49.131-5.279-111.16-5.279-190.444h64zM197.13 731.812c-20.827-15.132-39.143-33.448-54.275-54.275l51.777-37.618c11.185 15.394 24.722 28.932 40.116 40.116l-37.618 51.777zM512.004 842.666c81.903 0 115.268-0.395 141.367-8.875l19.776 60.868c-38.17 12.402-84.22 12.007-161.143 12.007v-64zM653.372 833.791c55.202-17.937 98.483-61.219 116.42-116.423l60.868 19.777c-24.269 74.688-82.825 133.246-157.513 157.514l-19.776-60.868zM512.004 906.666c-76.928 0-122.977 0.395-161.147-12.007l19.777-60.868c26.1 8.48 59.463 8.875 141.37 8.875v64zM350.857 894.659c-74.688-24.268-133.246-82.825-157.514-157.514l60.867-19.777c17.937 55.205 61.219 98.486 116.423 116.423l-19.777 60.868zM250.346 702.051c1.072 5.64 2.352 10.66 3.865 15.317l-60.867 19.777c-2.43-7.478-4.349-15.134-5.871-23.142l62.874-11.953zM512 778.666c-77.918 0-139.148 0.040-187.811-5-49.158-5.091-89.218-15.651-123.468-39.31l36.375-52.658c21.686 14.98 49.58 23.74 93.686 28.308 44.602 4.62 101.952 4.66 181.218 4.66v64zM200.721 734.357c-1.207-0.834-2.404-1.682-3.592-2.545l37.618-51.777c0.777 0.565 1.56 1.119 2.348 1.664l-36.375 52.658zM836.535 713.999c-1.523 8.009-3.443 15.666-5.875 23.146l-60.868-19.777c1.515-4.658 2.795-9.679 3.866-15.32l62.878 11.951zM512 714.666c79.27 0 136.619-0.040 181.222-4.66 44.105-4.569 72-13.329 93.687-28.311l36.373 52.656c-34.249 23.662-74.308 34.222-123.468 39.314-48.661 5.041-109.892 5.001-187.814 5.001v-64zM786.91 681.696c0.785-0.544 1.566-1.097 2.342-1.661l37.619 51.777c-1.186 0.861-2.381 1.708-3.588 2.54l-36.373-52.656zM341.333 202.666h341.333v64h-341.333v-64z" />
<glyph unicode="&#xe904;" glyph-name="profile-square" d="M215.939 83.409v0zM168.743 130.607v0zM855.258 130.607v0zM808.060 83.409v0zM808.060 769.924v0zM855.258 722.728v0zM215.939 769.924v0zM168.743 722.728v0zM213.48 92.48l-31.973 1.318-0.027-0.661v-0.657h32zM810.261 97.174l31.983 1.092-0.021 0.546-0.034 0.55-31.927-2.189zM650.667 554.667c0-76.582-62.084-138.667-138.667-138.667v-64c111.932 0 202.667 90.735 202.667 202.667h-64zM512 416c-76.582 0-138.667 62.084-138.667 138.667h-64c0-111.932 90.737-202.667 202.667-202.667v64zM373.333 554.667c0 76.584 62.084 138.667 138.667 138.667v64c-111.93 0-202.667-90.737-202.667-202.667h64zM512 693.334c76.582 0 138.667-62.083 138.667-138.667h64c0 111.93-90.735 202.667-202.667 202.667v-64zM512 74.667c-80.708 0-138.667 0.043-183.55 4.907-44.284 4.8-72.026 13.978-93.702 29.726l-37.618-51.776c34.403-24.998 74.697-36.19 124.427-41.579 49.131-5.321 111.16-5.278 190.444-5.278v64zM96 426.667c0-79.283-0.044-141.312 5.279-190.443 5.388-49.732 16.58-90.022 41.575-124.429l51.777 37.619c-15.748 21.675-24.927 49.417-29.725 93.7-4.863 44.885-4.907 102.844-4.907 183.552h-64zM864 426.667c0-80.708-0.043-138.667-4.907-183.552-4.8-44.284-13.978-72.026-29.726-93.7l51.776-37.619c24.998 34.406 36.19 74.697 41.579 124.429 5.321 49.131 5.278 111.159 5.278 190.443h-64zM512 10.667c79.283 0 141.312-0.043 190.443 5.278 49.732 5.389 90.022 16.58 124.429 41.579l-37.619 51.776c-21.675-15.748-49.417-24.926-93.7-29.726-44.885-4.864-102.844-4.907-183.552-4.907v-64zM512 778.667c80.708 0 138.667-0.044 183.552-4.907 44.284-4.798 72.026-13.977 93.7-29.725l37.619 51.777c-34.406 24.995-74.697 36.187-124.429 41.575-49.131 5.323-111.159 5.279-190.443 5.279v-64zM928 426.667c0 79.283 0.043 141.313-5.278 190.444-5.389 49.73-16.58 90.023-41.579 124.427l-51.776-37.618c15.748-21.675 24.926-49.417 29.726-93.702 4.864-44.883 4.907-102.842 4.907-183.55h64zM789.252 744.035c15.394-11.185 28.932-24.722 40.115-40.116l51.776 37.618c-15.13 20.827-33.446 39.143-54.272 54.275l-37.619-51.777zM512 842.667c-79.283 0-141.313 0.044-190.444-5.279-49.73-5.388-90.023-16.58-124.427-41.575l37.618-51.777c21.675 15.748 49.417 24.927 93.702 29.725 44.883 4.863 102.842 4.907 183.55 4.907v64zM160 426.667c0 80.708 0.044 138.667 4.907 183.55 4.798 44.284 13.977 72.026 29.725 93.702l-51.777 37.618c-24.995-34.403-36.187-74.697-41.575-124.427-5.323-49.131-5.279-111.16-5.279-190.444h64zM197.13 795.813c-20.827-15.132-39.143-33.448-54.275-54.275l51.777-37.618c11.185 15.394 24.722 28.932 40.116 40.116l-37.618 51.777zM384 224h256v64h-256v-64zM384 288c-109.094 0-198.043-86.187-202.493-194.202l63.946-2.637c3.043 73.869 63.916 132.838 138.547 132.838v64zM234.748 109.3c-0.7 0.508-1.397 1.020-2.090 1.54l-38.356-51.234c0.937-0.7 1.879-1.395 2.828-2.082l37.618 51.776zM232.658 110.84c-14.531 10.88-27.351 23.881-38.027 38.575l-51.777-37.619c14.444-19.878 31.788-37.47 51.448-52.19l38.356 51.234zM181.48 92.48v-7.258h64v7.258h-64zM640 224c73.335 0 133.397-56.951 138.338-129.015l63.851 4.378c-7.223 105.399-94.972 188.638-202.189 188.638v-64zM829.367 149.415c-10.645-14.652-23.42-27.622-37.901-38.481l38.4-51.2c19.593 14.694 36.877 32.239 51.277 52.062l-51.776 37.619zM791.467 110.934c-0.734-0.55-1.472-1.097-2.214-1.634l37.619-51.776c1.003 0.73 2.001 1.463 2.995 2.21l-38.4 51.2zM778.283 96.081l0.401-11.84 63.966 2.185-0.405 11.84-63.962-2.185z" />
<glyph unicode="&#xe905;" glyph-name="calender-down" d="M405.333 864c0 17.673-14.327 32-32 32s-32-14.327-32-32v-56.046c-64.509-4.044-114.067-14.497-154.87-44.142-20.827-15.132-39.143-33.448-54.275-54.275-34.212-47.090-42.863-105.841-45.601-185.775-1.253-36.573-1.253-79.129-1.253-128.622v-2.402c0-78.362 0-139.785 5.279-188.514 5.388-49.732 16.58-90.022 41.575-124.429 15.132-20.826 33.448-39.142 54.275-54.272 34.403-24.998 74.697-36.19 124.427-41.579 48.73-5.278 110.152-5.278 188.511-5.278v0h2.394c49.502 0 92.058 0 128.636 1.254 79.932 2.739 138.684 11.388 185.775 45.602 20.826 15.13 39.142 33.446 54.272 54.272 34.214 47.091 42.863 105.843 45.602 185.775 1.254 36.574 1.254 79.13 1.254 128.627v0.939c0 49.498 0 92.053-1.254 128.626-2.739 79.933-11.388 138.685-45.602 185.775-15.13 20.827-33.446 39.143-54.272 54.275-40.806 29.645-90.364 40.097-154.871 44.142v56.046c0 17.673-14.327 32-32 32s-32-14.327-32-32v-53.786c-28.553 0.453-60.279 0.453-95.526 0.453v0h-0.947c-35.247 0-66.974 0-95.526-0.453v53.786zM224.081 712.035c25.594 18.595 59.138 27.766 117.252 31.762v-7.797c0-17.673 14.327-32 32-32s32 14.327 32 32v10.206c28.143 0.458 59.836 0.46 96 0.46s67.857-0.002 96-0.46v-10.206c0-17.673 14.327-32 32-32s32 14.327 32 32v7.797c58.116-3.997 91.657-13.167 117.252-31.762 15.394-11.185 28.932-24.722 40.115-40.116 18.594-25.594 27.767-59.138 31.761-117.252h-698.259c3.997 58.114 13.167 91.658 31.762 117.252 11.185 15.394 24.722 28.932 40.116 40.116zM149.333 394.667c0 36.164 0.002 67.857 0.46 96h703.079c0.461-28.143 0.461-59.836 0.461-96 0-36.194 0-67.917-0.461-96.077-20.254-0.188-35.162-0.819-48.585-2.944-104.977-16.627-187.307-98.957-203.934-203.934-2.125-13.423-2.756-28.331-2.944-48.585-28.16-0.457-59.883-0.461-96.077-0.461-80.707 0-138.667 0.043-183.55 4.907-44.284 4.8-72.026 13.978-93.702 29.726-15.394 11.183-28.932 24.721-40.116 40.115-15.748 21.675-24.927 49.417-29.725 93.7-4.863 44.885-4.907 102.844-4.907 183.552zM814.302 232.436c8.747 1.382 18.876 1.911 36.156 2.112-4.002-58.039-13.175-91.554-31.757-117.133-11.183-15.394-24.721-28.932-40.115-40.115-25.579-18.581-59.093-27.755-117.133-31.757 0.201 17.28 0.73 27.409 2.112 36.156 12.292 77.594 73.143 138.445 150.737 150.737zM448 394.667c0 17.673-14.327 32-32 32s-32-14.327-32-32v-204.416c-7.637 7.147-16.759 16.324-28.541 28.211l-44.731 45.133c-12.441 12.553-32.702 12.642-45.254 0.201s-12.643-32.704-0.202-45.257l45.967-46.379c16.779-16.93 31.239-31.522 44.304-42.014 13.889-11.153 29.264-20.275 48.39-22.711 4.006-0.512 8.037-0.768 12.067-0.768s8.061 0.256 12.066 0.768c19.127 2.436 34.505 11.558 48.393 22.711 13.065 10.492 27.524 25.084 44.301 42.014v0l1.237 1.25 44.732 45.129c12.442 12.553 12.352 32.815-0.201 45.257s-32.815 12.352-45.257-0.201l-44.732-45.133c-11.78-11.887-20.902-21.065-28.54-28.211v204.416z" />
<glyph unicode="&#xe906;" glyph-name="doctor" d="M810.662 597.333c-30.161 0.072-59.387-10.532-82.473-29.952s-38.559-46.372-43.68-76.101c-5.113-29.732 0.472-60.307 15.753-86.307 15.292-26.012 39.275-45.772 67.74-55.767v-71.863c0-50.924-20.232-99.765-56.227-135.771s-84.844-56.227-135.771-56.227c-50.924 0-99.765 20.232-135.771 56.227s-56.227 84.844-56.227 135.771v25.185c59.595 10.112 113.687 40.972 152.731 87.106s60.507 104.597 60.612 165.043v256.001c0 11.319-4.492 22.163-12.493 30.167s-18.86 12.493-30.167 12.493h-85.332c-11.321 0-22.163-4.492-30.167-12.493s-12.493-18.86-12.493-30.167c0-11.319 4.492-22.163 12.493-30.167s18.86-12.493 30.167-12.493h42.663v-213.326c0-45.267-17.983-88.667-49.992-120.675s-75.407-49.992-120.675-49.992c-45.266 0-88.667 17.983-120.675 49.992s-49.992 75.407-49.992 120.675v213.326h42.663c11.319 0 22.163 4.492 30.167 12.493s12.493 18.86 12.493 30.167c0 11.319-4.492 22.163-12.493 30.167s-18.86 12.493-30.167 12.493h-85.332c-11.321 0-22.163-4.492-30.167-12.493s-12.493-18.86-12.493-30.167v-256.001c0.104-60.443 21.574-118.894 60.612-165.043s93.132-76.998 152.731-87.106v-25.185c0-73.547 29.212-144.091 81.227-196.097s122.551-81.227 196.096-81.227c73.547 0 144.091 29.212 196.097 81.227s81.227 122.551 81.227 196.097v71.857c28.456 10.012 52.452 29.772 67.734 55.767 15.292 26.012 20.861 56.587 15.753 86.307s-20.582 56.685-43.68 76.1-52.312 30.020-82.467 29.952zM810.662 426.667c-8.434 0-16.692 2.497-23.703 7.197s-12.483 11.344-15.715 19.144c-3.232 7.792-4.075 16.374-2.426 24.652s5.704 15.872 11.678 21.852c5.973 5.973 13.572 10.027 21.852 11.678s16.86 0.799 24.652-2.426c7.797-3.232 14.453-8.702 19.144-15.715s7.197-15.272 7.197-23.703c-0.016-11.313-4.512-22.154-12.515-30.152-7.997-7.997-18.844-12.493-30.152-12.512z" />
<glyph unicode="&#xe907;" glyph-name="angle-up" d="M502.677 479.407c6.191 0.79 12.454 0.79 18.645 0 9.86-1.254 20.868-5.978 38.007-19.742 17.643-14.17 38.468-35.109 68.723-65.638l74.55-75.221c12.442-12.553 32.704-12.641 45.258-0.2s12.641 32.704 0.2 45.258l-75.895 76.574c-28.582 28.843-51.947 52.412-72.764 69.129-21.645 17.385-43.614 29.969-69.985 33.331-11.567 1.474-23.266 1.474-34.833 0-26.372-3.361-48.341-15.945-69.988-33.331-20.816-16.717-44.178-40.286-72.762-69.129l-75.895-76.574c-12.441-12.553-12.351-32.815 0.202-45.258s32.814-12.352 45.254 0.2l74.552 75.221c30.257 30.529 51.081 51.469 68.723 65.638 17.139 13.763 28.146 18.487 38.007 19.742z" />
<glyph unicode="&#xe908;" glyph-name="profile-add" d="M597.333 352c17.673 0 32 14.327 32 32s-14.327 32-32 32v-64zM597.333 10.667c17.673 0 32 14.327 32 32s-14.327 32-32 32v-64zM640 245.335c-17.673 0-32-14.327-32-32s14.327-32 32-32v64zM896 181.334c17.673 0 32 14.327 32 32s-14.327 32-32 32v-64zM736 85.334c0-17.673 14.327-32 32-32s32 14.327 32 32h-64zM800 341.334c0 17.673-14.327 32-32 32s-32-14.327-32-32h64zM608 682.667c0-76.584-62.085-138.667-138.667-138.667v-64c111.932 0 202.667 90.737 202.667 202.667h-64zM469.333 544c-76.584 0-138.667 62.083-138.667 138.667h-64c0-111.93 90.737-202.667 202.667-202.667v64zM330.668 682.667c0 76.584 62.083 138.667 138.667 138.667v64c-111.93 0-202.667-90.737-202.667-202.667h64zM469.333 821.334c76.582 0 138.667-62.083 138.667-138.667h64c0 111.93-90.735 202.667-202.667 202.667v-64zM341.333 352h256v64h-256v-64zM597.333 74.667h-256v-64h256v64zM341.333 74.667c-76.584 0-138.667 62.085-138.667 138.667h-64c0-111.932 90.737-202.667 202.667-202.667v64zM341.333 416c-111.93 0-202.667-90.735-202.667-202.667h64c0 76.582 62.083 138.667 138.667 138.667v64zM640 181.334h256v64h-256v-64zM800 85.334v256h-64v-256h64z" />
<glyph unicode="&#xe909;" glyph-name="close-circle" d="M614.611 478.847c11.335 11.331 11.335 29.708 0 41.043-11.331 11.335-29.708 11.335-41.042 0l-61.569-61.569-61.569 61.569c-11.335 11.335-29.71 11.335-41.044 0s-11.335-29.712 0-41.047l61.567-61.564-61.567-61.569c-11.335-11.335-11.335-29.711 0-41.047s29.709-11.335 41.044 0l61.569 61.569 61.569-61.569c11.335-11.335 29.711-11.335 41.047 0 11.331 11.335 11.331 29.711 0 41.047l-61.569 61.569 61.564 61.569zM512 842.668c-229.751 0-416.001-186.25-416.001-416.001s186.25-416.001 416.001-416.001c229.752 0 416.001 186.248 416.001 416.001 0 229.751-186.248 416.001-416.001 416.001zM154.047 426.667c0 197.692 160.261 357.953 357.953 357.953s357.953-160.261 357.953-357.953c0-197.691-160.262-357.953-357.953-357.953s-357.953 160.262-357.953 357.953z" />
<glyph unicode="&#xe90a;" glyph-name="location" horiz-adv-x="981" d="M593.331 123.522v0zM387.669 123.522v0zM490.5 38.283v0zM758.598 496.707c0-45.356-23.651-106.044-60.879-171.853-36.609-64.725-83.923-130.292-126.213-184.22l43.65-34.227c43.121 54.993 92.309 123.004 130.848 191.138 37.923 67.048 68.065 138.491 68.065 199.161h-55.468zM409.493 140.634c-42.29 53.926-89.604 119.495-126.214 184.22-37.226 65.808-60.877 126.499-60.877 171.853h-55.468c0-60.672 30.143-132.116 68.065-199.161 38.536-68.134 87.725-136.146 130.847-191.138l43.648 34.227zM222.402 496.707c0 162.45 121.913 290.608 268.098 290.608v55.468c-180.582 0-323.567-156.893-323.567-346.077h55.468zM490.5 787.314c146.185 0 268.098-128.16 268.098-290.608h55.468c0 189.183-142.986 346.077-323.567 346.077v-55.468zM571.507 140.634c-22.887-29.189-37.959-48.254-51.452-60.514-12.306-11.179-20.524-14.104-29.554-14.104v-55.468c26.962 0 47.88 11.284 66.852 28.514 17.779 16.153 36.134 39.703 57.805 67.343l-43.65 34.227zM365.845 106.407c21.673-27.638 40.023-51.191 57.805-67.343 18.969-17.233 39.89-28.514 66.852-28.514v55.468c-9.030 0-17.248 2.925-29.554 14.104-13.493 12.259-28.566 31.325-51.453 60.514l-43.648-34.227zM351.827 482.237c0-76.588 62.085-138.673 138.673-138.673v55.468c-45.95 0-83.202 37.252-83.202 83.202h-55.468zM490.5 343.564c76.588 0 138.673 62.084 138.673 138.673h-55.468c0-45.95-37.252-83.202-83.202-83.202v-55.468zM629.173 482.237c0 76.588-62.084 138.673-138.673 138.673v-55.468c45.95 0 83.202-37.251 83.202-83.202h55.468zM490.5 620.91c-76.588 0-138.673-62.085-138.673-138.673h55.468c0 45.951 37.252 83.202 83.202 83.202v55.468z" />
<glyph unicode="&#xe90b;" glyph-name="calling" d="M552.263 785.239c33.315 0 48.061-0.029 60.221-1.119 135.201-12.104 242.354-119.256 254.457-254.457 1.091-12.16 1.119-26.907 1.119-60.222v-38.316c0-16.031 12.997-29.028 29.028-29.028s29.028 12.997 29.028 29.028v40.266c0 30.843 0 48.369-1.351 63.449-14.606 163.175-143.925 292.494-307.101 307.104-15.083 1.35-32.607 1.35-63.454 1.349h-40.262c-16.031 0-29.028-12.997-29.028-29.028s12.997-29.028 29.028-29.028h38.316zM324.757 735.882c-40.719 37.415-103.308 37.415-144.027 0-1.668-1.533-3.447-3.312-5.759-5.625l-34.736-34.735c-34.953-34.953-49.626-85.342-38.903-133.596 60.841-273.78 274.656-487.596 548.437-548.436 48.255-10.725 98.643 3.948 133.595 38.905l34.733 34.733c2.314 2.311 4.094 4.094 5.628 5.763 37.418 40.72 37.418 103.306 0 144.025-1.533 1.669-3.312 3.448-5.628 5.763l-56.862 56.866c-39.48 39.48-99.107 50.77-150.288 28.459-29.303-12.772-63.439-6.304-86.040 16.297l-92.764 92.763c-22.603 22.603-29.068 56.735-16.295 86.037 22.31 51.183 11.020 110.806-28.463 150.288l-56.867 56.868c-2.313 2.313-4.092 4.092-5.76 5.626zM220.009 693.134c18.508 17.007 46.958 17.007 65.467 0 0.638-0.587 1.476-1.416 4.421-4.36l56.436-56.437c22.603-22.603 29.068-56.737 16.295-86.038-22.312-51.185-11.020-110.807 28.463-150.288l92.762-92.763c39.48-39.48 99.107-50.774 150.288-28.463 29.303 12.772 63.439 6.309 86.040-16.295l56.437-56.437c2.941-2.945 3.77-3.781 4.358-4.421 17.006-18.507 17.006-46.958 0-65.467-0.589-0.638-1.416-1.478-4.358-4.421l-34.306-34.306c-20.915-20.919-51.073-29.696-79.949-23.28-251.777 55.949-448.408 252.581-504.359 504.357-6.416 28.877 2.364 59.033 23.282 79.951l34.304 34.303c2.943 2.943 3.781 3.772 4.421 4.36zM541.311 706.457c-16.031 0-29.028-12.997-29.028-29.028s12.997-29.028 29.028-29.028h21.895c0.421 0 0.812 0 1.177 0 2.543 0 3.723-0.003 4.706-0.016 89.002-1.275 160.842-73.115 162.116-162.117 0.015-1.123 0.019-2.509 0.019-5.883v-21.895c0-16.031 12.993-29.028 29.028-29.028 16.031 0 29.028 12.997 29.028 29.028v22.176c0 0.376 0 0.732 0 1.072-0.004 2.389-0.004 3.963-0.024 5.361-1.727 120.413-98.922 217.608-219.334 219.333-1.598 0.023-3.428 0.023-6.435 0.023h-22.174z" />
<glyph unicode="&#xe90c;" glyph-name="delete" horiz-adv-x="983" d="M758.465 394.739v0zM747.721 317.529v0zM235.321 317.529v0zM224.575 394.739v0zM376.162 27.848v0zM265.219 157.957v0zM717.82 157.957v0zM606.88 27.848v0zM235.382 552.453c-1.605 16.89-16.598 29.281-33.488 27.677s-29.281-16.598-27.677-33.488l61.165 5.811zM808.821 546.641c1.606 16.89-10.785 31.883-27.677 33.488-16.888 1.605-31.883-10.786-33.485-27.677l61.161-5.811zM819.2 600.747c16.966 0 30.72 13.754 30.72 30.72s-13.754 30.72-30.72 30.72v-61.44zM163.84 662.187c-16.966 0-30.72-13.754-30.72-30.72s13.754-30.72 30.72-30.72v61.44zM655.36 631.467v-30.72h30.72v30.72h-30.72zM327.68 631.467h-30.72v-30.72h30.72v30.72zM728.039 398.974l-10.748-77.21 60.854-8.471 10.744 77.21-60.85 8.471zM265.748 321.764l-10.745 77.21-60.853-8.471 10.745-77.21 60.853 8.471zM491.52 47.787c-62.636 0-84.974 0.582-103.414 8.364l-23.887-56.607c32.648-13.779 70.187-13.197 127.301-13.197v61.44zM204.894 313.294c11.457-82.321 17.685-128.36 31.49-165.933l57.671 21.189c-10.957 29.823-16.407 67.703-28.307 153.215l-60.853-8.471zM388.106 56.151c-37.784 15.942-72.92 54.886-94.051 112.398l-57.671-21.189c25.174-68.518 70.081-123.445 127.835-147.816l23.887 56.607zM717.292 321.764c-11.899-85.512-17.351-123.392-28.307-153.215l57.672-21.189c13.804 37.573 20.034 83.612 31.49 165.933l-60.854 8.471zM491.52-13.653c57.115 0 94.654-0.582 127.3 13.197l-23.884 56.607c-18.44-7.782-40.78-8.364-103.416-8.364v-61.44zM688.984 168.549c-21.131-57.512-56.267-96.457-94.048-112.398l23.884-56.607c57.754 24.371 102.662 79.299 127.836 147.816l-57.672 21.189zM255.002 398.974c-9.098 65.376-15.892 114.242-19.62 153.479l-61.165-5.811c3.884-40.881 10.906-91.282 19.931-156.138l60.853 8.471zM788.89 390.503c9.028 64.856 16.048 115.257 19.931 156.138l-61.161 5.811c-3.731-39.237-10.523-88.103-19.62-153.479l60.85-8.471zM819.2 662.187h-655.36v-61.44h655.36v61.44zM624.64 672.427v-40.96h61.44v40.96h-61.44zM655.36 662.187h-327.68v-61.44h327.68v61.44zM358.4 631.467v40.96h-61.44v-40.96h61.44zM491.52 805.547c73.519 0 133.12-59.6 133.12-133.12h61.44c0 107.452-87.106 194.56-194.56 194.56v-61.44zM491.52 866.987c-107.452 0-194.56-87.108-194.56-194.56h61.44c0 73.52 59.601 133.12 133.12 133.12v61.44z" />
<glyph unicode="&#xe90d;" glyph-name="show" horiz-adv-x="983" d="M829.694 354.454v0zM829.694 498.881v0zM863.741 426.668v0zM153.303 354.454v0zM153.303 498.881v0zM119.259 426.668v0zM129.833 337.605c33.444-46.588 83.216-107.804 144.084-157.644 60.538-49.566 135.109-90.361 217.582-90.361v57.783c-63.399 0-125.231 31.646-180.976 77.286-55.414 45.371-101.806 102.137-133.751 146.633l-46.939-33.699zM491.499 89.601c82.475 0 157.046 40.795 217.583 90.361 60.869 49.84 110.639 111.055 144.084 157.644l-46.939 33.699c-31.946-44.497-78.338-101.263-133.752-146.633-55.745-45.64-117.576-77.286-180.976-77.286v-57.783zM853.166 515.731c-33.444 46.586-83.215 107.805-144.084 157.643-60.538 49.567-135.108 90.361-217.583 90.361v-57.783c63.399 0 125.231-31.644 180.976-77.286 55.414-45.372 101.806-102.135 133.752-146.633l46.939 33.699zM491.499 763.735c-82.473 0-157.044-40.794-217.582-90.362-60.868-49.838-110.64-111.056-144.084-157.643l46.939-33.699c31.945 44.499 78.336 101.261 133.751 146.633 55.745 45.642 117.576 77.286 180.976 77.286v57.783zM853.166 337.605c21.356 29.746 39.466 53.291 39.466 89.063h-57.783c0-13.81-4.588-21.884-28.622-55.364l46.939-33.699zM806.227 482.032c24.034-33.479 28.622-41.554 28.622-55.364h57.783c0 35.771-18.109 59.316-39.466 89.063l-46.939-33.699zM176.772 371.304c-24.036 33.479-28.622 41.554-28.622 55.364h-57.783c0-35.771 18.11-59.316 39.466-89.063l46.939 33.699zM129.833 515.731c-21.356-29.746-39.466-53.291-39.466-89.063h57.783c0 13.81 4.587 21.884 28.622 55.364l-46.939 33.699zM347.042 426.668c0-79.782 64.676-144.457 144.457-144.457v57.783c-47.867 0-86.674 38.807-86.674 86.674h-57.783zM491.499 282.211c79.782 0 144.457 64.675 144.457 144.457h-57.783c0-47.867-38.807-86.674-86.674-86.674v-57.783zM635.956 426.668c0 79.782-64.675 144.457-144.457 144.457v-57.783c47.867 0 86.674-38.807 86.674-86.674h57.783zM491.499 571.125c-79.782 0-144.457-64.675-144.457-144.457h57.783c0 47.867 38.807 86.674 86.674 86.674v57.783z" />
<glyph unicode="&#xe90e;" glyph-name="edit" horiz-adv-x="983" d="M390.397 139.136v0zM224.247 107.232v0zM168.803 267.075v0zM188.885 373.661v0zM164.959 322.985v0zM472.666 209.821v0zM440.738 163.761v0zM344.47 643.142v0zM795.030 57.99c16.966 0 30.72 13.754 30.72 30.72s-13.754 30.72-30.72 30.72v-61.44zM549.27 119.43c-16.966 0-30.72-13.754-30.72-30.72s13.754-30.72 30.72-30.72v61.44zM601.645 494.661l-155.587-269.48 53.211-30.72 155.582 269.48-53.207 30.72zM215.49 358.301l155.584 269.481-53.209 30.72-155.584-269.481 53.209-30.72zM379.218 167.751c-44.911-17.547-75.499-29.417-99.111-34.935-22.809-5.329-33.16-3.219-40.5 1.020l-30.72-53.211c26.758-15.446 55.466-14.582 85.198-7.635 28.929 6.758 64.368 20.685 107.491 37.532l-22.358 57.229zM138.433 262.45c6.971-45.773 12.63-83.427 21.241-111.858 8.85-29.225 22.455-54.518 49.213-69.968l30.72 53.211c-7.34 4.235-14.341 12.145-21.131 34.562-7.029 23.208-12.043 55.632-19.304 103.301l-60.74-9.249zM162.281 389.021c-13.182-22.831-23.736-40.309-27.511-60.35l60.377-11.375c1.391 7.381 5.066 14.549 20.342 41.005l-53.209 30.72zM199.173 271.699c-4.6 30.204-5.416 38.216-4.025 45.597l-60.377 11.375c-3.776-20.038-0.306-40.157 3.663-66.22l60.74 9.249zM446.058 225.181c-15.274-26.456-19.644-33.223-25.338-38.117l40.038-46.6c15.466 13.287 25.33 31.166 38.511 53.998l-53.211 30.72zM401.576 110.521c24.555 9.593 43.716 16.65 59.183 29.942l-40.038 46.6c-5.698-4.895-13.045-8.196-41.503-19.313l22.358-57.229zM552.919 676.507c34.198-19.743 57.135-33.062 72.937-45.258 15.098-11.651 19.911-19.5 21.864-26.791l59.343 15.902c-6.828 25.484-23.13 43.679-43.672 59.53-19.833 15.306-47.063 30.951-79.753 49.825l-30.72-53.208zM654.852 463.941c18.874 32.694 34.632 59.855 44.159 83.029 9.863 23.998 14.885 47.906 8.053 73.391l-59.343-15.902c1.954-7.292 1.712-16.493-5.538-34.133-7.59-18.464-20.795-41.467-40.538-75.665l53.207-30.72zM583.639 729.716c-32.69 18.875-59.855 34.632-83.026 44.157-23.998 9.863-47.907 14.885-73.392 8.056l15.901-59.347c7.291 1.954 16.495 1.713 34.136-5.537 18.461-7.589 41.464-20.795 75.661-40.537l30.72 53.208zM371.074 627.782c19.743 34.196 33.061 57.134 45.256 72.938 11.653 15.099 19.501 19.908 26.792 21.862l-15.901 59.347c-25.485-6.828-43.679-23.132-59.53-43.673-15.307-19.834-30.951-47.062-49.826-79.754l53.209-30.72zM643.609 505.908l-283.779 163.838-30.72-53.209 283.779-163.84 30.72 53.211zM795.030 119.43h-245.76v-61.44h245.76v61.44z" />
<glyph unicode="&#xe90f;" glyph-name="pause" d="M416 810.667c0 17.673-14.327 32-32 32s-32-14.327-32-32v-768c0-17.673 14.327-32 32-32s32 14.327 32 32v768zM672 810.667c0 17.673-14.327 32-32 32s-32-14.327-32-32v-768c0-17.673 14.327-32 32-32s32 14.327 32 32v768z" />
<glyph unicode="&#xe910;" glyph-name="category" d="M347.536 799.115c-12.997 0.887-28.828 0.887-47.791 0.886h-2.156c-18.964 0-34.795 0-47.791-0.886-13.53-0.923-26.31-2.913-38.7-8.045-28.75-11.909-51.592-34.75-63.5-63.5-5.132-12.39-7.122-25.17-8.045-38.7-0.887-12.997-0.887-28.827-0.886-47.791v-2.155c0-18.964 0-34.795 0.886-47.792 0.923-13.53 2.913-26.309 8.045-38.699 11.909-28.75 34.75-51.593 63.5-63.502 12.39-5.133 25.17-7.121 38.7-8.043 12.997-0.887 28.827-0.887 47.791-0.887h2.156c18.964 0 34.794 0 47.791 0.887 13.53 0.922 26.309 2.91 38.699 8.043 28.75 11.908 51.593 34.752 63.502 63.502 5.133 12.39 7.121 25.169 8.043 38.699 0.887 12.997 0.887 28.828 0.887 47.791v2.156c0 18.964 0 34.794-0.887 47.791-0.922 13.53-2.91 26.31-8.043 38.7-11.908 28.75-34.752 51.592-63.502 63.5-12.39 5.132-25.169 7.122-38.699 8.045zM235.59 731.942c3.292 1.364 8.293 2.621 18.564 3.322 10.559 0.72 24.195 0.738 44.512 0.738s33.954-0.017 44.512-0.738c10.271-0.701 15.272-1.958 18.564-3.322 13.068-5.413 23.45-15.796 28.864-28.864 1.364-3.292 2.621-8.293 3.322-18.564 0.72-10.559 0.738-24.195 0.738-44.512s-0.017-33.954-0.738-44.512c-0.701-10.271-1.958-15.272-3.322-18.564-5.413-13.068-15.796-23.45-28.864-28.864-3.292-1.364-8.293-2.621-18.564-3.322-10.558-0.72-24.195-0.738-44.512-0.738s-33.954 0.017-44.512 0.738c-10.271 0.701-15.272 1.958-18.564 3.322-13.068 5.413-23.451 15.796-28.864 28.864-1.364 3.292-2.621 8.293-3.322 18.564-0.72 10.558-0.738 24.195-0.738 44.512s0.017 33.954 0.738 44.512c0.701 10.271 1.958 15.272 3.322 18.564 5.413 13.068 15.796 23.451 28.864 28.864zM774.204 799.115c-12.996 0.887-28.83 0.887-47.791 0.886h-2.155c-18.965 0-34.799 0-47.795-0.886-13.53-0.923-26.308-2.913-38.699-8.045-28.749-11.909-51.593-34.75-63.501-63.5-5.133-12.39-7.121-25.17-8.043-38.7-0.887-12.997-0.887-28.827-0.887-47.791v-2.156c0-18.964 0-34.794 0.887-47.791 0.922-13.53 2.91-26.309 8.043-38.699 11.908-28.75 34.752-51.593 63.501-63.502 12.39-5.133 25.169-7.121 38.699-8.043 12.996-0.887 28.83-0.887 47.791-0.887h2.159c18.961 0 34.795 0 47.791 0.887 13.53 0.922 26.308 2.91 38.699 8.043 28.749 11.908 51.593 34.752 63.501 63.502 5.133 12.39 7.121 25.169 8.043 38.699 0.887 12.997 0.887 28.828 0.887 47.791v2.156c0 18.964 0 34.794-0.887 47.791-0.922 13.53-2.91 26.31-8.043 38.7-11.908 28.75-34.752 51.592-63.501 63.5-12.39 5.132-25.169 7.122-38.699 8.045zM662.255 731.942c3.294 1.364 8.294 2.621 18.564 3.322 10.56 0.72 24.196 0.738 44.514 0.738s33.954-0.017 44.514-0.738c10.27-0.701 15.27-1.958 18.564-3.322 13.065-5.413 23.45-15.796 28.864-28.864 1.361-3.292 2.62-8.293 3.319-18.564 0.721-10.559 0.738-24.195 0.738-44.512s-0.017-33.954-0.738-44.512c-0.7-10.271-1.958-15.272-3.319-18.564-5.414-13.068-15.799-23.45-28.864-28.864-3.294-1.364-8.294-2.621-18.564-3.322-10.56-0.72-24.196-0.738-44.514-0.738s-33.954 0.017-44.514 0.738c-10.27 0.701-15.27 1.958-18.564 3.322-13.065 5.413-23.45 15.796-28.86 28.864-1.365 3.292-2.624 8.293-3.324 18.564-0.721 10.558-0.738 24.195-0.738 44.512s0.017 33.954 0.738 44.512c0.7 10.271 1.958 15.272 3.324 18.564 5.41 13.068 15.795 23.451 28.86 28.864zM347.536 372.447c-12.997 0.887-28.828 0.887-47.791 0.887h-2.156c-18.964 0-34.794 0-47.791-0.887-13.53-0.922-26.31-2.91-38.7-8.043-28.75-11.908-51.592-34.752-63.5-63.501-5.132-12.39-7.122-25.169-8.045-38.699-0.887-12.996-0.887-28.83-0.886-47.791v-2.159c0-18.961 0-34.795 0.886-47.791 0.923-13.53 2.913-26.308 8.045-38.699 11.909-28.749 34.75-51.593 63.5-63.501 12.39-5.133 25.17-7.121 38.7-8.043 12.997-0.887 28.827-0.887 47.791-0.887h2.156c18.964 0 34.794 0 47.791 0.887 13.53 0.922 26.309 2.91 38.699 8.043 28.75 11.908 51.593 34.752 63.502 63.501 5.133 12.39 7.121 25.169 8.043 38.699 0.887 12.996 0.887 28.83 0.887 47.791v2.159c0 18.961 0 34.795-0.887 47.791-0.922 13.53-2.91 26.308-8.043 38.699-11.908 28.749-34.752 51.593-63.502 63.501-12.39 5.133-25.169 7.121-38.699 8.043zM235.59 305.273c3.292 1.365 8.293 2.624 18.564 3.324 10.559 0.721 24.195 0.738 44.512 0.738s33.954-0.017 44.512-0.738c10.271-0.7 15.272-1.958 18.564-3.324 13.068-5.41 23.45-15.795 28.864-28.86 1.364-3.294 2.621-8.294 3.322-18.564 0.72-10.56 0.738-24.196 0.738-44.514s-0.017-33.954-0.738-44.514c-0.701-10.27-1.958-15.27-3.322-18.564-5.413-13.065-15.796-23.45-28.864-28.864-3.292-1.361-8.293-2.62-18.564-3.319-10.558-0.721-24.195-0.738-44.512-0.738s-33.954 0.017-44.512 0.738c-10.271 0.7-15.272 1.958-18.564 3.319-13.068 5.414-23.451 15.799-28.864 28.864-1.364 3.294-2.621 8.294-3.322 18.564-0.72 10.56-0.738 24.196-0.738 44.514s0.017 33.954 0.738 44.514c0.701 10.27 1.958 15.27 3.322 18.564 5.413 13.065 15.796 23.45 28.864 28.86zM774.204 372.447c-12.996 0.887-28.83 0.887-47.791 0.887h-2.159c-18.961 0-34.795 0-47.791-0.887-13.53-0.922-26.308-2.91-38.699-8.043-28.749-11.908-51.593-34.752-63.501-63.501-5.133-12.39-7.121-25.169-8.043-38.699-0.887-12.996-0.887-28.83-0.887-47.791v-2.159c0-18.961 0-34.795 0.887-47.791 0.922-13.53 2.91-26.308 8.043-38.699 11.908-28.749 34.752-51.593 63.501-63.501 12.39-5.133 25.169-7.121 38.699-8.043 12.996-0.887 28.83-0.887 47.791-0.887h2.159c18.961 0 34.795 0 47.791 0.887 13.53 0.922 26.308 2.91 38.699 8.043 28.749 11.908 51.593 34.752 63.501 63.501 5.133 12.39 7.121 25.169 8.043 38.699 0.887 12.996 0.887 28.83 0.887 47.791v2.159c0 18.961 0 34.795-0.887 47.791-0.922 13.53-2.91 26.308-8.043 38.699-11.908 28.749-34.752 51.593-63.501 63.501-12.39 5.133-25.169 7.121-38.699 8.043zM662.255 305.273c3.294 1.365 8.294 2.624 18.564 3.324 10.56 0.721 24.196 0.738 44.514 0.738s33.954-0.017 44.514-0.738c10.27-0.7 15.27-1.958 18.564-3.324 13.065-5.41 23.45-15.795 28.864-28.86 1.361-3.294 2.62-8.294 3.319-18.564 0.721-10.56 0.738-24.196 0.738-44.514s-0.017-33.954-0.738-44.514c-0.7-10.27-1.958-15.27-3.319-18.564-5.414-13.065-15.799-23.45-28.864-28.864-3.294-1.361-8.294-2.62-18.564-3.319-10.56-0.721-24.196-0.738-44.514-0.738s-33.954 0.017-44.514 0.738c-10.27 0.7-15.27 1.958-18.564 3.319-13.065 5.414-23.45 15.799-28.86 28.864-1.365 3.294-2.624 8.294-3.324 18.564-0.721 10.56-0.738 24.196-0.738 44.514s0.017 33.954 0.738 44.514c0.7 10.27 1.958 15.27 3.324 18.564 5.41 13.065 15.795 23.45 28.86 28.86z" />
<glyph unicode="&#xe911;" glyph-name="upload" d="M318.036 64.124v0zM149.46 232.705v0zM874.543 232.705v0zM705.962 64.124v0zM872.979 494.63c-15.137 20.149-43.744 24.215-63.894 9.079-20.144-15.135-24.214-43.738-9.077-63.888l72.971 54.809zM223.991 439.823c15.135 20.15 11.070 48.753-9.079 63.888s-48.753 11.070-63.888-9.079l72.967-54.809zM466.37 223.871c0-25.2 20.43-45.63 45.63-45.63s45.63 20.43 45.63 45.63h-91.259zM314.007 657.814c-15.657-19.746-12.341-48.446 7.404-64.104s48.447-12.342 64.104 7.404l-71.509 56.699zM406.458 700.971v0zM617.542 700.971v0zM638.485 601.116c15.654-19.746 44.358-23.062 64.1-7.404 19.748 15.657 23.064 44.357 7.41 64.104l-71.511-56.699zM501.833 790.897v0zM522.167 790.897v0zM831.407 345.548v-40.56h91.259v40.56h-91.259zM633.679 107.26h-243.358v-91.259h243.358v91.259zM192.593 304.988v40.56h-91.259v-40.56h91.259zM390.321 107.26c-39.424 0-53.824 0.14-65.147 1.935l-14.276-90.134c20.204-3.2 43.486-3.060 79.422-3.060v91.259zM101.333 304.988c0-35.938-0.142-59.215 3.058-79.42l90.137 14.273c-1.794 11.322-1.935 25.723-1.935 65.147h-91.259zM325.174 109.194c-67.251 10.653-119.995 63.395-130.647 130.647l-90.137-14.273c16.836-106.305 100.206-189.673 206.507-206.507l14.276 90.134zM831.407 304.988c0-39.424-0.14-53.825-1.935-65.147l90.134-14.273c3.2 20.204 3.060 43.482 3.060 79.42h-91.259zM633.679 16c35.938 0 59.215-0.14 79.42 3.060l-14.273 90.134c-11.322-1.795-25.723-1.935-65.147-1.935v-91.259zM829.473 239.841c-10.653-67.252-63.395-119.994-130.647-130.647l14.273-90.134c106.305 16.834 189.673 100.203 206.507 206.507l-90.134 14.273zM922.667 345.548c0 55.873-18.501 107.559-49.688 149.083l-72.971-54.809c19.73-26.264 31.399-58.84 31.399-94.275h91.259zM192.593 345.548c0 35.434 11.672 68.011 31.399 94.275l-72.967 54.809c-31.191-41.525-49.691-93.209-49.691-149.083h91.259zM557.63 223.871v527.273h-91.259v-527.273h91.259zM385.516 601.116l56.697 71.505-71.509 56.699-56.697-71.505 71.509-56.699zM581.789 672.622l56.697-71.505 71.511 56.699-56.697 71.505-71.511-56.699zM442.212 672.622c23.299 29.385 38.395 48.312 50.883 60.847 5.957 5.98 10.028 9.15 12.726 10.833 1.266 0.79 2.087 1.161 2.516 1.329 0.401 0.158 0.595 0.192 0.676 0.204l-14.359 90.122c-27.982-4.458-49.001-20.806-66.212-38.085-17.008-17.074-35.823-40.916-57.738-68.554l71.509-56.699zM653.3 729.321c-21.917 27.638-40.731 51.48-57.74 68.554-17.212 17.278-38.23 33.626-66.212 38.085l-14.359-90.122c0.080-0.012 0.274-0.047 0.675-0.204 0.43-0.168 1.25-0.539 2.516-1.329 2.698-1.684 6.769-4.853 12.726-10.833 12.487-12.536 27.583-31.462 50.883-60.847l71.511 56.699zM509.013 745.836c1.010 0.162 2.005 0.239 2.987 0.239v91.259c-5.809 0-11.605-0.46-17.346-1.375l14.359-90.122zM512 746.074c0.983 0 1.978-0.077 2.988-0.239l14.359 90.122c-5.742 0.914-11.538 1.375-17.347 1.375v-91.259zM557.63 751.144v40.56h-91.259v-40.56h91.259z" />
<glyph unicode="&#xe912;" glyph-name="dollar-square" d="M480 128c0-17.673 14.327-32 32-32s32 14.327 32 32h-64zM544 725.334c0 17.673-14.327 32-32 32s-32-14.327-32-32h64zM616.009 578.059c8.836-15.305 28.407-20.549 43.712-11.712s20.548 28.407 11.712 43.712l-55.424-32zM627.695 621.814v0zM474.88 440.32v0zM549.124 413.014v0zM396.308 231.518v0zM407.997 275.273c-8.837 15.309-28.407 20.553-43.713 11.716s-20.55-28.407-11.713-43.716l55.426 32zM568.653 185.34v0zM455.351 667.994v0zM215.939 83.409v0zM168.743 130.607v0zM855.258 130.607v0zM808.060 83.409v0zM808.060 769.924v0zM855.258 722.728v0zM215.939 769.924v0zM168.743 722.728v0zM671.433 610.059l-16.026 27.755-55.424-32 16.026-27.755 55.424 32zM424.021 247.518l-16.024 27.755-55.426-32 16.024-27.755 55.426 32zM538.078 382.981c74.927-27.563 83.716-130.010 14.575-169.929l32-55.424c116.134 67.051 101.372 239.125-24.482 285.419l-22.093-60.066zM439.351 695.706c-116.134-67.049-101.373-239.126 24.482-285.419l22.093 60.066c-74.929 27.563-83.717 130.009-14.575 169.927l-32 55.426zM512 74.667c-80.708 0-138.667 0.043-183.55 4.907-44.284 4.8-72.026 13.978-93.702 29.726l-37.618-51.776c34.403-24.998 74.697-36.19 124.427-41.579 49.131-5.321 111.16-5.278 190.444-5.278v64zM96 426.667c0-79.283-0.044-141.312 5.279-190.443 5.388-49.732 16.58-90.022 41.575-124.429l51.777 37.619c-15.748 21.675-24.927 49.417-29.725 93.7-4.863 44.885-4.907 102.844-4.907 183.552h-64zM234.748 109.3c-15.394 11.183-28.932 24.721-40.116 40.115l-51.777-37.619c15.132-20.826 33.448-39.142 54.275-54.272l37.618 51.776zM864 426.667c0-80.708-0.043-138.667-4.907-183.552-4.8-44.284-13.978-72.026-29.726-93.7l51.776-37.619c24.998 34.406 36.19 74.697 41.579 124.429 5.321 49.131 5.278 111.159 5.278 190.443h-64zM512 10.667c79.283 0 141.312-0.043 190.443 5.278 49.732 5.389 90.022 16.58 124.429 41.579l-37.619 51.776c-21.675-15.748-49.417-24.926-93.7-29.726-44.885-4.864-102.844-4.907-183.552-4.907v-64zM829.367 149.415c-11.183-15.394-24.721-28.932-40.115-40.115l37.619-51.776c20.826 15.13 39.142 33.446 54.272 54.272l-51.776 37.619zM512 778.667c80.708 0 138.667-0.044 183.552-4.907 44.284-4.798 72.026-13.977 93.7-29.725l37.619 51.777c-34.406 24.995-74.697 36.187-124.429 41.575-49.131 5.323-111.159 5.279-190.443 5.279v-64zM928 426.667c0 79.283 0.043 141.313-5.278 190.444-5.389 49.73-16.58 90.023-41.579 124.427l-51.776-37.618c15.748-21.675 24.926-49.417 29.726-93.702 4.864-44.883 4.907-102.842 4.907-183.55h64zM789.252 744.035c15.394-11.185 28.932-24.722 40.115-40.116l51.776 37.618c-15.13 20.827-33.446 39.143-54.272 54.275l-37.619-51.777zM512 842.667c-79.283 0-141.313 0.044-190.444-5.279-49.73-5.388-90.023-16.58-124.427-41.575l37.618-51.777c21.675 15.748 49.417 24.927 93.702 29.725 44.883 4.863 102.842 4.907 183.55 4.907v64zM160 426.667c0 80.708 0.044 138.667 4.907 183.55 4.798 44.284 13.977 72.026 29.725 93.702l-51.777 37.618c-24.995-34.403-36.187-74.697-41.575-124.427-5.323-49.131-5.279-111.16-5.279-190.444h64zM197.13 795.813c-20.827-15.132-39.143-33.448-54.275-54.275l51.777-37.618c11.185 15.394 24.722 28.932 40.116 40.116l-37.618 51.777zM655.407 637.814c-30.729 53.228-87.706 81.784-145.011 78.905l3.209-63.919c34.261 1.721 68.117-15.359 86.379-46.986l55.424 32zM510.396 716.719c-24.286-1.22-48.636-8.073-71.044-21.012l32-55.426c13.423 7.749 27.87 11.796 42.253 12.519l-3.209 63.919zM544 684.759v40.575h-64v-40.575h64zM544.004 426.667l-0.004 258.092h-64l0.004-258.092h64zM463.834 410.287l37.12-13.653 22.097 60.066-37.124 13.653-22.093-60.066zM500.954 396.634l37.124-13.653 22.093 60.066-37.12 13.653-22.097-60.066zM544 128v40.576h-64v-40.576h64zM544 168.576l0.004 258.091h-64l-0.004-258.091h64zM552.653 213.052c-13.423-7.748-27.87-11.797-42.257-12.518l3.209-63.919c24.286 1.22 48.636 8.073 71.049 21.013l-32 55.424zM510.396 200.534c-34.257-1.719-68.117 15.36-86.375 46.985l-55.426-32c30.731-53.227 87.703-81.779 145.009-78.903l-3.209 63.919z" />
<glyph unicode="&#xe913;" glyph-name="dollar-circle" d="M483.043 156.413c0-15.991 12.966-28.957 28.957-28.957s28.957 12.966 28.957 28.957h-57.91zM540.957 696.921c0 15.992-12.966 28.957-28.957 28.957s-28.957-12.965-28.957-28.957h57.91zM606.112 563.657c7.996-13.849 25.706-18.594 39.558-10.598 13.848 7.996 18.592 25.706 10.597 39.555l-50.155-28.957zM616.693 603.247v0zM478.414 439.022v0zM545.596 414.312l9.995 27.175h-0.005l-9.99-27.175zM407.317 250.085v0zM417.893 289.677c-7.996 13.853-25.706 18.597-39.555 10.601s-18.594-25.706-10.598-39.558l50.152 28.957zM563.268 208.299v0zM460.743 645.035v0zM869.119 426.667c0-197.23-159.888-357.119-357.119-357.119v-57.91c229.217 0 415.032 185.815 415.032 415.032h-57.91zM512 69.548c-197.232 0-357.119 159.888-357.119 357.119h-57.91c0-229.217 185.816-415.032 415.032-415.032v57.91zM154.881 426.667c0 197.232 159.888 357.119 357.119 357.119v57.91c-229.215 0-415.032-185.816-415.032-415.032h57.91zM512 783.786c197.23 0 357.119-159.888 357.119-357.119h57.91c0 229.215-185.815 415.032-415.032 415.032v-57.91zM656.267 592.611l-14.502 25.114-50.151-28.957 14.498-25.114 50.155 28.957zM432.394 264.561l-14.501 25.114-50.152-28.957 14.501-25.114 50.152 28.957zM535.601 387.137c67.798-24.94 75.751-117.641 13.188-153.761l28.957-50.151c105.083 60.67 91.727 216.376-22.152 258.266l-19.99-54.351zM446.265 670.112c-105.084-60.669-91.728-216.376 22.153-258.266l19.991 54.351c-67.803 24.938-75.753 117.639-13.193 153.76l-28.955 50.152zM540.957 156.413v36.717h-57.91v-36.717h57.91zM540.957 193.13v233.537h-57.91v-233.537h57.91zM548.789 233.376c-12.147-7.013-25.223-10.674-38.239-11.328l2.904-57.838c21.974 1.103 44.014 7.305 64.292 19.016l-28.957 50.151zM510.55 222.048c-30.999-1.556-61.634 13.9-78.156 42.516l-50.152-28.957c27.807-48.16 79.359-73.998 131.212-71.397l-2.904 57.838zM468.416 411.846l33.588-12.355 19.99 54.351-33.586 12.355-19.992-54.351zM502.005 399.492l33.596-12.355 19.989 54.351-33.591 12.355-19.99-54.351zM540.957 426.667v233.539h-57.91v-233.539h57.91zM540.957 660.206v36.715h-57.91v-36.715h57.91zM641.769 617.725c-27.81 48.164-79.365 74.004-131.219 71.398l2.904-57.838c31.001 1.558 61.642-13.899 78.164-42.517l50.151 28.957zM510.55 689.123c-21.973-1.103-44.005-7.305-64.285-19.015l28.955-50.152c12.147 7.013 25.219 10.672 38.234 11.328l-2.904 57.838z" />
<glyph unicode="&#xe914;" glyph-name="setting" d="M287.329 671.535v0zM412.272 743.671v0zM187.603 498.802v0zM187.603 354.532v0zM287.329 181.798v0zM412.272 109.662v0zM611.73 109.662v0zM736.67 181.798v0zM836.398 354.532v0zM836.398 498.802v0zM736.67 671.535v0zM611.73 743.671v0zM280.577 644.6c68.825-17.253 138.926 23.221 158.396 91.45l-53.405 15.241c-11.248-39.408-51.735-62.785-91.488-52.821l-13.503-53.871zM207.552 518.117c-53.141 54.891-1.083 145.058 73.024 126.483l13.503 53.871c-128.303 32.161-218.434-123.949-126.43-218.985l39.901 38.63zM207.552 335.215c49.353 50.981 49.353 131.923 0 182.901l-39.901-38.63c28.506-29.445 28.506-76.198 0-105.639l39.901-38.632zM280.577 208.734c-74.107-18.576-126.166 71.592-73.024 126.482l-39.901 38.632c-92.004-95.036-1.875-251.144 126.43-218.986l-13.503 53.872zM438.973 117.282c-19.471 68.231-89.571 108.702-158.396 91.452l13.503-53.872c39.754 9.964 80.241-13.411 91.488-52.819l53.405 15.24zM585.022 117.282c-20.963-73.466-125.082-73.466-146.049 0l-53.405-15.24c36.299-127.197 216.559-127.197 252.862 0l-53.408 15.24zM743.424 208.734c-68.825 17.25-138.926-23.223-158.402-91.452l53.408-15.24c11.245 39.408 51.734 62.783 91.488 52.819l13.503 53.872zM816.448 335.215c53.138-54.889 1.081-145.055-73.024-126.482l-13.503-53.872c128.302-32.161 218.434 123.949 126.43 218.986l-39.901-38.632zM816.448 518.117c-49.354-50.979-49.354-131.923 0-182.901l39.901 38.632c-28.505 29.444-28.505 76.194 0 105.639l-39.901 38.63zM743.424 644.6c74.105 18.576 126.163-71.593 73.024-126.483l39.901-38.63c92.003 95.034 1.874 251.144-126.43 218.985l13.503-53.871zM585.022 736.050c19.476-68.231 89.573-108.703 158.402-91.45l-13.503 53.871c-39.754-9.965-80.243 13.412-91.488 52.821l-53.408-15.241zM638.432 751.292c-36.303 127.196-216.563 127.196-252.862 0l53.405-15.241c20.967 73.468 125.086 73.468 146.049 0l53.408 15.241zM373.155 426.667c0-76.682 62.164-138.844 138.842-138.844v55.537c-46.007 0-83.305 37.296-83.305 83.307h-55.537zM511.998 287.823c76.682 0 138.844 62.162 138.844 138.844h-55.537c0-46.011-37.296-83.307-83.307-83.307v-55.537zM650.842 426.667c0 76.68-62.162 138.844-138.844 138.844v-55.537c46.011 0 83.307-37.3 83.307-83.306h55.537zM511.998 565.511c-76.679 0-138.842-62.164-138.842-138.844h55.537c0 46.007 37.299 83.306 83.305 83.306v55.537z" />
<glyph unicode="&#xe915;" glyph-name="group" d="M596.364 595.395c0-46.593-37.772-84.364-84.364-84.364v-56.242c77.655 0 140.606 62.952 140.606 140.606h-56.242zM512 511.031c-46.592 0-84.364 37.771-84.364 84.364h-56.242c0-77.655 62.952-140.606 140.606-140.606v56.242zM427.636 595.395c0 46.593 37.772 84.364 84.364 84.364v56.242c-77.655 0-140.606-62.952-140.606-140.606h56.242zM512 679.758c46.592 0 84.364-37.771 84.364-84.364h56.242c0 77.655-62.951 140.606-140.606 140.606v-56.242zM399.516 342.303h224.97v56.242h-224.97v-56.242zM624.484 173.576h-224.97v-56.242h224.97v56.242zM399.516 173.576c-46.593 0-84.364 37.772-84.364 84.364h-56.242c0-77.655 62.952-140.606 140.606-140.606v56.242zM708.848 257.939c0-46.592-37.772-84.364-84.364-84.364v-56.242c77.655 0 140.606 62.951 140.606 140.606h-56.242zM624.484 342.303c46.592 0 84.364-37.772 84.364-84.364h56.242c0 77.655-62.951 140.606-140.606 140.606v-56.242zM399.516 398.545c-77.655 0-140.606-62.951-140.606-140.606h56.242c0 46.592 37.771 84.364 84.364 84.364v56.242zM352.726 496.457c-5.914 9.502-17.011 14.575-28.201 14.575-46.593 0-84.364 37.771-84.364 84.364s37.771 84.364 84.364 84.364c11.19 0 22.287 5.072 28.201 14.572 0.262 0.42 0.525 0.839 0.79 1.257 9.846 15.542 4.857 37.548-13.431 39.562-5.11 0.562-10.302 0.851-15.561 0.851-77.655 0-140.606-62.952-140.606-140.606s62.952-140.606 140.606-140.606c5.259 0 10.45 0.289 15.561 0.851 18.289 2.013 23.277 24.019 13.431 39.562-0.265 0.42-0.529 0.835-0.79 1.255zM238.597 199.189c-4.256 7.101-11.769 11.883-20.048 11.883h-6.509c-46.593 0-84.364 37.772-84.364 84.364s37.771 84.364 84.364 84.364h6.509c8.279 0 15.792 4.78 20.048 11.883 10.389 17.335-0.885 44.361-21.094 44.361h-5.462c-77.655 0-140.606-62.951-140.606-140.606s62.952-140.606 140.606-140.606h5.462c20.209 0 31.485 27.026 21.094 44.361zM670.483 495.201c-9.846-15.541-4.855-37.548 13.431-39.562 5.111-0.562 10.301-0.851 15.561-0.851 77.655 0 140.606 62.952 140.606 140.606s-62.951 140.606-140.606 140.606c-5.26 0-10.449-0.289-15.561-0.851-18.287-2.013-23.277-24.019-13.431-39.562 0.267-0.417 0.529-0.836 0.79-1.256 5.913-9.501 17.008-14.573 28.2-14.573 46.592 0 84.364-37.771 84.364-84.364s-37.772-84.364-84.364-84.364c-11.192 0-22.287-5.073-28.2-14.575-0.263-0.42-0.525-0.835-0.79-1.255zM785.403 199.189c-10.389-17.335 0.885-44.361 21.094-44.361h5.463c77.655 0 140.606 62.951 140.606 140.606s-62.951 140.606-140.606 140.606h-5.463c-20.209 0-31.485-27.026-21.094-44.361 4.256-7.101 11.769-11.883 20.048-11.883h6.509c46.592 0 84.364-37.772 84.364-84.364s-37.772-84.364-84.364-84.364h-6.509c-8.279 0-15.793-4.78-20.048-11.883z" />
<glyph unicode="&#xe916;" glyph-name="profile-circle" d="M637.767 542.76c0-69.458-56.308-125.767-125.767-125.767v-58.046c101.52 0 183.815 82.295 183.815 183.815h-58.046zM512 416.992c-69.458 0-125.767 56.308-125.767 125.767h-58.046c0-101.52 82.297-183.815 183.815-183.815v58.046zM386.233 542.76c0 69.46 56.308 125.767 125.767 125.767v58.046c-101.518 0-183.815-82.297-183.815-183.815h58.046zM512 668.528c69.458 0 125.767-56.307 125.767-125.767h58.046c0 101.518-82.295 183.815-183.815 183.815v-58.046zM395.907 242.852h232.186v58.046h-232.186v-58.046zM154.047 426.667c0 197.692 160.261 357.953 357.953 357.953v58.046c-229.751 0-416.001-186.25-416.001-416.001h58.046zM512 784.62c197.691 0 357.953-160.261 357.953-357.953h58.046c0 229.751-186.248 416.001-416.001 416.001v-58.046zM869.953 426.667c0-101.515-42.219-193.12-110.138-258.299l40.192-41.882c78.85 75.673 127.992 182.212 127.992 300.182h-58.046zM759.816 168.368c-64.342-61.749-151.622-99.655-247.816-99.655v-58.046c111.766 0 213.29 44.116 288.007 115.819l-40.192 41.882zM628.093 242.852c60.987 0 111.895-43.442 123.352-101.082l56.931 11.316c-16.748 84.28-91.067 147.814-180.285 147.814v-58.046zM512 68.714c-96.193 0-183.471 37.904-247.816 99.655l-40.192-41.882c74.718-71.703 176.241-115.819 288.006-115.819v58.046zM264.184 168.368c-67.918 65.179-110.138 156.784-110.138 258.299h-58.046c0-117.969 49.142-224.509 127.992-300.182l40.192 41.882zM395.907 300.9c-89.22 0-163.536-63.534-180.285-147.814l56.932-11.316c11.456 57.64 62.363 101.082 123.351 101.082v58.046z" />
<glyph unicode="&#xe917;" glyph-name="document-minus" d="M204.039 557.293v0zM381.373 734.627v0zM808.060 83.408v0zM855.258 130.606v0zM168.743 130.606v0zM215.939 83.408v0zM215.939 769.923v0zM168.743 722.727v0zM808.060 769.923v0zM855.258 722.727v0zM384 809.432v0zM129.234 554.666v0zM426.667 373.333c-17.673 0-32-14.327-32-32s14.327-32 32-32v64zM682.667 309.333c17.673 0 32 14.327 32 32s-14.327 32-32 32v-64zM209.045 525.686c104.976 16.627 187.308 98.958 203.934 203.934l-63.212 10.012c-12.289-77.591-73.143-138.445-150.734-150.734l10.012-63.212zM512 10.666c79.283 0 141.312-0.043 190.443 5.278 49.732 5.389 90.022 16.58 124.429 41.579l-37.619 51.776c-21.675-15.748-49.417-24.926-93.7-29.726-44.885-4.864-102.844-4.907-183.552-4.907v-64zM864 426.666c0-80.708-0.043-138.667-4.907-183.552-4.8-44.284-13.978-72.026-29.726-93.7l51.776-37.619c24.998 34.406 36.19 74.697 41.579 124.429 5.321 49.131 5.278 111.159 5.278 190.443h-64zM826.871 57.523c20.826 15.13 39.142 33.446 54.272 54.272l-51.776 37.619c-11.183-15.394-24.721-28.932-40.115-40.115l37.619-51.776zM96 426.666c0-79.283-0.044-141.312 5.279-190.443 5.388-49.732 16.58-90.022 41.575-124.429l51.777 37.619c-15.748 21.675-24.927 49.417-29.725 93.7-4.863 44.885-4.907 102.844-4.907 183.552h-64zM512 74.666c-80.708 0-138.667 0.043-183.55 4.907-44.284 4.8-72.026 13.978-93.702 29.726l-37.618-51.776c34.403-24.998 74.697-36.19 124.426-41.579 49.131-5.321 111.16-5.278 190.444-5.278v64zM142.854 111.795c15.132-20.826 33.448-39.142 54.276-54.272l37.618 51.776c-15.394 11.183-28.932 24.721-40.116 40.115l-51.777-37.619zM197.13 795.812c-20.828-15.132-39.144-33.448-54.276-54.275l51.777-37.618c11.184 15.394 24.722 28.932 40.116 40.116l-37.618 51.777zM512 778.666c80.708 0 138.667-0.044 183.552-4.907 44.284-4.798 72.026-13.977 93.7-29.725l37.619 51.777c-34.406 24.995-74.697 36.187-124.429 41.575-49.131 5.323-111.159 5.279-190.443 5.279v-64zM928 426.666c0 79.283 0.043 141.313-5.278 190.444-5.389 49.73-16.58 90.023-41.579 124.427l-51.776-37.618c15.748-21.675 24.926-49.417 29.726-93.702 4.864-44.883 4.907-102.842 4.907-183.55h64zM789.252 744.034c15.394-11.185 28.932-24.722 40.115-40.116l51.776 37.618c-15.13 20.827-33.446 39.143-54.272 54.275l-37.619-51.777zM512 842.666c-49.698 0-92.406 0.004-129.096-1.253l2.191-63.962c35.361 1.212 76.852 1.216 126.904 1.216v64zM382.904 841.413c-79.934-2.738-138.685-11.389-185.774-45.601l37.618-51.777c30.103 21.871 71.204 30.705 150.348 33.416l-2.191 63.962zM352 809.432c0-39.989-0.125-56.493-2.232-69.8l63.212-10.012c3.091 19.514 3.020 42.167 3.020 79.811h-64zM160 426.666c0 50.052 0.004 91.543 1.216 126.904l-63.962 2.191c-1.257-36.69-1.253-79.398-1.253-129.096h64zM161.216 553.57c2.711 79.144 11.545 120.244 33.416 150.348l-51.777 37.618c-34.212-47.090-42.863-105.841-45.601-185.775l63.962-2.191zM129.234 522.666c37.644 0 60.297-0.070 79.811 3.020l-10.012 63.212c-13.306-2.107-29.81-2.232-69.8-2.232v-64zM426.667 309.333h256v64h-256v-64z" />
<glyph unicode="&#xe918;" glyph-name="document-align-center" d="M357.209 223.504c-16.029 0-29.024-12.995-29.024-29.024s12.995-29.024 29.024-29.024v58.046zM666.791 165.456c16.029 0 29.024 12.995 29.024 29.024s-12.995 29.024-29.024 29.024v-58.046zM434.605 378.295c-16.029 0-29.024-12.995-29.024-29.024s12.995-29.024 29.024-29.024v58.046zM589.395 320.247c16.029 0 29.024 12.995 29.024 29.024s-12.995 29.024-29.024 29.024v-58.046zM357.209 533.085c-16.029 0-29.024-12.995-29.024-29.024s12.995-29.024 29.024-29.024v58.046zM666.791 475.037c16.029 0 29.024 12.995 29.024 29.024s-12.995 29.024-29.024 29.024v-58.046zM243.479 76.642v0zM200.673 119.45v0zM823.328 119.45v0zM780.52 76.642v0zM780.52 776.69v0zM823.328 733.884v0zM243.479 776.69v0zM200.673 733.884v0zM556.352 635.815v0zM495.817 635.815v0zM357.209 165.456h309.581v58.046h-309.581v-58.046zM434.605 320.247h154.791v58.046h-154.791v-58.046zM357.209 475.037h309.581v58.046h-309.581v-58.046zM831.256 465.365v-77.395h58.046v77.395h-58.046zM192.744 387.969v77.395h-58.046v-77.395h58.046zM512 68.713c-73.2 0-125.767 0.039-166.476 4.451-40.164 4.354-65.326 12.678-84.986 26.96l-34.118-46.96c31.203-22.672 67.749-32.824 112.853-37.711 44.561-4.826 100.82-4.787 172.728-4.787v58.046zM134.698 387.969c0-71.907-0.040-128.166 4.787-172.727 4.886-45.106 15.038-81.648 37.707-112.855l46.961 34.119c-14.284 19.659-22.609 44.821-26.959 84.984-4.411 40.709-4.451 93.278-4.451 166.478h-58.046zM260.538 100.124c-13.962 10.143-26.24 22.421-36.384 36.383l-46.961-34.119c13.724-18.888 30.336-35.5 49.227-49.224l34.118 46.96zM831.256 387.969c0-73.2-0.039-125.767-4.451-166.478-4.354-40.164-12.678-65.326-26.96-84.984l46.96-34.119c22.672 31.206 32.824 67.749 37.711 112.855 4.826 44.561 4.787 100.819 4.787 172.727h-58.046zM512 10.665c71.907 0 128.166-0.039 172.727 4.787 45.106 4.887 81.648 15.038 112.855 37.711l-34.119 46.96c-19.659-14.284-44.821-22.608-84.984-26.96-40.709-4.412-93.278-4.451-166.478-4.451v-58.046zM799.845 136.507c-10.143-13.962-22.421-26.24-36.383-36.383l34.119-46.96c18.888 13.722 35.5 30.334 49.224 49.224l-46.96 34.119zM889.302 465.365c0 71.906 0.039 128.167-4.787 172.728-4.887 45.104-15.038 81.649-37.711 112.853l-46.96-34.118c14.284-19.659 22.608-44.821 26.96-84.986 4.412-40.707 4.451-93.277 4.451-166.476h58.046zM763.462 753.209c13.962-10.145 26.24-22.422 36.383-36.384l46.96 34.118c-13.722 18.889-30.334 35.501-49.224 49.227l-34.119-46.961zM192.744 465.365c0 73.199 0.040 125.767 4.451 166.476 4.352 40.164 12.677 65.326 26.959 84.986l-46.961 34.118c-22.669-31.203-32.821-67.749-37.707-112.853-4.827-44.561-4.787-100.822-4.787-172.728h58.046zM226.42 800.17c-18.889-13.724-35.501-30.336-49.227-49.227l46.961-34.118c10.145 13.962 22.422 26.24 36.384 36.384l-34.118 46.961zM551.811 664.48c-17.047-2.701-34.409-2.701-51.456 0l-9.078-57.332c23.059-3.653 46.554-3.653 69.617 0l-9.082 57.332zM740.715 808.967c-47.993-47.96-82.967-82.397-113.179-106.188-29.778-23.452-52.605-34.636-75.724-38.297l9.082-57.332c36.689 5.812 68.666 23.337 102.557 50.027 33.458 26.349 71.014 63.485 118.296 110.731l-41.031 41.059zM512 784.62c64.303 0 112.799-0.021 151.498-3.061 38.6-3.033 64.606-8.921 84.666-19.037l26.137 51.83c-29.924 15.090-64.672 21.807-106.256 25.074-41.487 3.261-92.616 3.24-156.045 3.24v-58.046zM748.164 762.523c5.43-2.74 10.495-5.822 15.298-9.312l34.119 46.961c-7.376 5.358-15.116 10.064-23.28 14.182l-26.137-51.83zM262.086 776.24c49.942-49.939 89.143-89.078 123.698-116.735 34.984-27.999 67.744-46.379 105.493-52.357l9.078 57.332c-23.78 3.767-47.25 15.491-78.301 40.343-31.48 25.195-68.12 61.659-118.924 112.463l-41.044-41.046zM512 842.667c-55.582 0-101.632 0.010-139.899-2.155-38.238-2.165-70.758-6.581-98.959-16.311l18.933-54.872c20.719 7.148 47.019 11.174 83.308 13.23 36.26 2.053 80.447 2.063 136.617 2.063v58.046zM273.142 824.2c-17.051-5.883-32.495-13.693-46.722-24.030l34.118-46.961c9.155 6.652 19.385 11.924 31.537 16.117l-18.933 54.872z" />
<glyph unicode="&#xe919;" glyph-name="add" d="M545.829 787.505c0 18.683-15.146 33.829-33.829 33.829s-33.829-15.146-33.829-33.829v-327.009h-327.009c-18.683 0-33.829-15.146-33.829-33.829s15.146-33.829 33.829-33.829h327.009v-327.009c0-18.683 15.146-33.829 33.829-33.829s33.829 15.146 33.829 33.829v327.009h327.009c18.683 0 33.829 15.146 33.829 33.829s-15.146 33.829-33.829 33.829h-327.009v327.009z" />
<glyph unicode="&#xe91a;" glyph-name="minus" d="M170.666 458.667c-17.673 0-32-14.327-32-32s14.327-32 32-32h682.667c17.673 0 32 14.327 32 32s-14.327 32-32 32h-682.667z" />
<glyph unicode="&#xe91b;" glyph-name="tick" d="M877.917 626.209c11.315 13.577 9.48 33.755-4.096 45.069-13.581 11.314-33.759 9.48-45.069-4.097l-230.003-276.003c-46.204-55.441-78.703-94.323-106.893-119.778-27.533-24.863-46.532-32.764-65.19-32.764-18.656 0-37.656 7.902-65.189 32.764-28.19 25.455-60.691 64.337-106.892 119.778l-59.336 71.202c-11.314 13.577-31.492 15.412-45.069 4.096-13.577-11.311-15.412-31.488-4.097-45.069l60.982-73.178c44.172-53.005 79.546-95.458 111.519-124.326 33.025-29.825 66.787-49.267 108.081-49.267 41.297 0 75.055 19.443 108.083 49.267 31.975 28.868 67.346 71.317 111.518 124.326l231.65 277.979z" />
<glyph unicode="&#xe91c;" glyph-name="close" d="M874.756 738.324c14.105 14.109 14.105 36.984 0 51.095-14.109 14.109-36.985 14.109-51.097 0l-311.659-311.66-311.657 311.66c-14.109 14.109-36.984 14.109-51.095 0s-14.109-36.984 0-51.095l311.66-311.657-311.659-311.659c-14.109-14.109-14.109-36.981 0-51.090s36.984-14.109 51.095 0l311.656 311.654 311.659-311.654c14.109-14.109 36.981-14.109 51.090 0s14.109 36.981 0 51.090l-311.654 311.659 311.659 311.657z" />
<glyph unicode="&#xe91d;" glyph-name="information-circle" d="M541.024 465.364c0 16.029-12.995 29.024-29.024 29.024s-29.024-12.995-29.024-29.024v-232.186c0-16.029 12.995-29.024 29.024-29.024s29.024 12.995 29.024 29.024v232.186zM512 842.668c-229.751 0-416.001-186.25-416.001-416.001s186.25-416.001 416.001-416.001c229.752 0 416.001 186.248 416.001 416.001 0 229.751-186.248 416.001-416.001 416.001zM154.048 426.667c0 197.692 160.262 357.952 357.952 357.952s357.952-160.262 357.952-357.952c0-197.691-160.262-357.952-357.952-357.952s-357.952 160.262-357.952 357.952zM550.697 581.458c0-21.372-17.325-38.697-38.697-38.697s-38.697 17.325-38.697 38.697c0 21.372 17.325 38.697 38.697 38.697s38.697-17.325 38.697-38.697z" />
<glyph unicode="&#xe91e;" glyph-name="angle-right" d="M449.194 662.723c-12.552 12.441-32.813 12.351-45.254-0.202s-12.351-32.813 0.202-45.254l75.22-74.552c30.527-30.257 51.468-51.080 65.638-68.723 13.764-17.139 18.486-28.148 19.743-38.007 0.789-6.191 0.789-12.455 0-18.646-1.257-9.859-5.979-20.868-19.743-38.007-14.17-17.644-35.11-38.467-65.638-68.723l-75.22-74.553c-12.552-12.442-12.643-32.704-0.202-45.254s32.702-12.64 45.254-0.198l76.575 75.891c28.841 28.582 52.413 51.948 69.131 72.764 17.384 21.645 29.967 43.617 33.329 69.989 1.474 11.564 1.474 23.266 0 34.83-3.361 26.372-15.945 48.344-33.329 69.989-16.717 20.816-40.289 44.178-69.131 72.762l-76.575 75.895z" />
<glyph unicode="&#xe91f;" glyph-name="angle-left" d="M619.859 617.272c12.552 12.441 12.643 32.702 0.202 45.254s-32.702 12.643-45.254 0.202l-76.575-75.895c-28.842-28.584-52.413-51.946-69.131-72.762-17.384-21.645-29.967-43.617-33.329-69.989-1.474-11.564-1.474-23.266 0-34.83 3.361-26.372 15.946-48.344 33.329-69.99 16.717-20.815 40.289-44.174 69.13-72.763l76.576-75.891c12.552-12.442 32.813-12.352 45.254 0.198s12.351 32.813-0.202 45.254l-75.22 74.552c-30.527 30.257-51.468 51.080-65.638 68.724-13.764 17.139-18.486 28.148-19.743 38.007-0.789 6.191-0.789 12.455 0 18.646 1.257 9.859 5.979 20.868 19.743 38.007 14.17 17.644 35.11 38.467 65.638 68.723l75.22 74.552z" />
<glyph unicode="&#xe920;" glyph-name="right" d="M170.672 474.662c-26.51 0-48-21.491-48-48s21.49-48 48-48v96zM853.338 378.662c26.509 0 48 21.491 48 48s-21.491 48-48 48v-96zM716.461 674.087c-18.829 18.662-49.222 18.526-67.878-0.303-18.664-18.829-18.529-49.22 0.301-67.882l67.578 68.184zM757.894 565.443v0zM757.894 287.883v0zM648.883 247.422c-18.829-18.662-18.965-49.056-0.301-67.885 18.656-18.829 49.050-18.963 67.878-0.301l-67.578 68.186zM852.493 440.031v0zM852.493 413.293v0zM170.672 378.662h682.666v96h-682.666v-96zM648.883 605.903l75.219-74.552 67.578 68.184-75.219 74.552-67.578-68.184zM724.102 321.973l-75.219-74.55 67.578-68.186 75.219 74.554-67.578 68.182zM724.102 531.351c30.797-30.522 50.957-50.609 64.429-67.378 12.858-16.012 15.616-24.28 16.346-30.012l95.226 12.138c-3.885 30.501-18.432 55.212-36.723 77.985-17.683 22.015-42.509 46.518-71.699 75.451l-67.578-68.184zM791.68 253.79c29.19 28.928 54.016 53.434 71.699 75.448 18.291 22.773 32.838 47.484 36.723 77.985l-95.226 12.138c-0.73-5.731-3.488-13.999-16.346-30.012-13.472-16.769-33.632-36.856-64.429-67.378l67.578-68.182zM804.877 433.962c0.614-4.847 0.614-9.752 0-14.6l95.226-12.138c1.645 12.907 1.645 25.969 0 38.876l-95.226-12.138z" />
<glyph unicode="&#xe921;" glyph-name="calender-line" horiz-adv-x="931" d="M183.834 59.51v0zM138.932 104.413v0zM792.067 104.413v0zM747.164 59.51v0zM747.164 712.641v0zM792.067 667.74v0zM183.834 712.641v0zM138.932 667.74v0zM758.483 261.799v0zM589.775 93.091v0zM343.724 375.929c-16.814 0-30.445-13.632-30.445-30.445s13.631-30.445 30.445-30.445v60.887zM587.276 315.039c16.813 0 30.445 13.632 30.445 30.445s-13.632 30.445-30.445 30.445v-60.887zM556.832 710.812c0-16.814 13.632-30.445 30.445-30.445s30.445 13.631 30.445 30.445h-60.887zM617.719 832.588c0 16.814-13.632 30.445-30.445 30.445s-30.445-13.631-30.445-30.445h60.887zM313.28 710.812c0-16.814 13.631-30.445 30.445-30.445s30.445 13.631 30.445 30.445h-60.887zM374.167 832.588c0 16.814-13.631 30.445-30.445 30.445s-30.445-13.631-30.445-30.445h60.887zM829.654 264.3v0zM101.346 507.852v0zM829.654 507.852v0zM465.5 51.192c-76.782 0-131.923 0.041-174.626 4.669-42.13 4.567-68.524 13.298-89.146 28.279l-35.788-49.259c32.731-23.782 71.066-34.431 118.377-39.557 46.742-5.063 105.758-5.022 181.183-5.022v60.887zM69.728 386.075c0-75.427-0.042-134.44 5.022-181.182 5.125-47.314 15.774-85.645 39.553-118.38l49.26 35.789c-14.983 20.621-23.716 47.015-28.278 89.144-4.627 42.702-4.669 97.844-4.669 174.628h-60.887zM201.728 84.141c-14.646 10.64-27.524 23.518-38.165 38.164l-49.26-35.789c14.396-19.812 31.821-37.238 51.638-51.634l35.788 49.259zM767.436 122.306c-10.64-14.646-23.518-27.524-38.164-38.164l35.789-49.259c19.812 14.393 37.238 31.819 51.634 51.634l-49.259 35.789zM729.272 688.012c14.646-10.641 27.524-23.52 38.164-38.165l49.259 35.788c-14.393 19.814-31.819 37.239-51.634 51.638l-35.789-49.26zM165.94 737.272c-19.814-14.396-37.239-31.821-51.638-51.638l49.26-35.788c10.641 14.646 23.52 27.524 38.165 38.165l-35.788 49.26zM753.723 291.87c-99.871-15.82-178.199-94.144-194.018-194.018l60.137-9.526c11.694 73.821 69.587 131.714 143.407 143.407l-9.526 60.137zM343.724 315.039h243.552v60.887h-243.552v-60.887zM829.654 294.745c-35.814 0-57.365 0.065-75.932-2.874l9.526-60.137c12.656 2.005 28.359 2.122 66.406 2.122v60.887zM800.384 386.075c0-47.618-0.005-87.094-1.156-120.733l60.851-2.086c1.197 34.906 1.194 75.537 1.194 122.82h-60.887zM799.227 265.343c-2.578-75.294-10.984-114.395-31.792-143.038l49.259-35.789c32.552 44.802 40.778 100.696 43.385 176.741l-60.851 2.086zM617.719 21.922c0 38.047 0.117 53.747 2.122 66.406l-60.137 9.526c-2.938-18.566-2.874-40.118-2.874-75.932h60.887zM465.5-9.697c47.281 0 87.914-0.005 122.82 1.194l-2.086 60.851c-33.638-1.154-73.115-1.156-120.733-1.156v-60.887zM588.32-8.502c76.044 2.607 131.941 10.833 176.741 43.385l-35.789 49.259c-28.642-20.808-67.744-29.215-143.038-31.792l2.086-60.851zM130.616 386.075c0 47.618 0.004 87.092 1.156 120.733l-60.852 2.085c-1.197-34.906-1.193-75.537-1.193-122.82h60.887zM131.773 506.81c2.58 75.296 10.983 114.396 31.792 143.036l-49.26 35.788c-32.55-44.801-40.777-100.694-43.384-176.74l60.852-2.085zM101.346 477.407h728.308v60.887h-728.308v-60.887zM861.271 386.075c0 47.281 0.005 87.912-1.194 122.82l-60.851-2.085c1.154-33.64 1.156-73.115 1.156-120.733h60.887zM860.079 508.894c-2.607 76.047-10.833 131.942-43.385 176.74l-49.259-35.788c20.808-28.64 29.215-67.741 31.792-143.036l60.851 2.085zM617.719 710.812v39.418h-60.887v-39.418h60.887zM617.719 750.228v82.359h-60.887v-82.359h60.887zM465.5 720.959c47.618 0 87.094-0.004 120.733-1.156l2.086 60.852c-34.906 1.197-75.537 1.193-122.82 1.193v-60.887zM586.233 719.803c75.294-2.58 114.395-10.983 143.038-31.792l35.789 49.26c-44.802 32.549-100.696 40.777-176.741 43.384l-2.086-60.852zM374.167 710.812v39.418h-60.887v-39.418h60.887zM374.167 750.228v82.359h-60.887v-82.359h60.887zM465.5 781.849c-47.281 0-87.912 0.004-122.82-1.193l2.085-60.852c33.64 1.154 73.115 1.156 120.733 1.156v60.887zM342.68 780.656c-76.047-2.607-131.942-10.834-176.74-43.384l35.788-49.26c28.64 20.809 67.741 29.212 143.036 31.792l-2.085 60.852z" />
<glyph unicode="&#xe922;" glyph-name="search" d="M456.594 842.207c-198.896 0-360.131-161.235-360.131-360.131s161.235-360.131 360.131-360.131c198.897 0 360.131 161.234 360.131 360.131s-161.234 360.131-360.131 360.131zM151.869 482.073c0 168.297 136.432 304.728 304.728 304.728 168.294 0 304.728-136.432 304.728-304.728 0-168.294-136.434-304.728-304.728-304.728-168.297 0-304.728 136.434-304.728 304.728zM771.677 206.163c-10.821 10.821-28.36 10.821-39.18 0-10.821-10.816-10.821-28.355 0-39.176l147.743-147.747c10.821-10.821 28.36-10.821 39.18 0s10.821 28.36 0 39.18l-147.743 147.743z" />
<glyph unicode="&#xe923;" glyph-name="home-line" d="M516.805 840.232c-5.167 0.189-10.338 0.189-15.502 0-34.105-1.251-64.809-12.847-98.483-32.152-32.813-18.812-70.587-46.258-118.517-81.081l-2.606-1.892c-47.929-34.824-85.709-62.269-113.737-87.664-28.764-26.058-49.282-51.68-61.010-83.727-1.775-4.854-3.374-9.772-4.792-14.743-9.35-32.82-7.811-65.611 0.144-103.598 7.753-37.020 22.182-81.424 40.488-137.773l63.786-196.315c13.749-42.311 53.179-70.962 97.671-70.962 56.719 0 102.698 45.978 102.698 102.7v101.089c0 23.693 19.206 42.899 42.899 42.899h118.421c23.693 0 42.899-19.206 42.899-42.899v-101.089c0-56.719 45.978-102.7 102.7-102.7 44.49 0 83.923 28.651 97.669 70.962l63.787 196.319c18.311 56.344 32.737 100.753 40.487 137.769 7.954 37.987 9.496 70.779 0.146 103.598-1.414 4.971-3.015 9.89-4.793 14.743-11.726 32.047-32.247 57.669-61.010 83.727-28.032 25.393-65.808 52.84-113.737 87.664l-2.609 1.892c-47.929 34.824-85.706 62.269-118.517 81.080-33.671 19.304-64.38 30.899-98.486 32.152zM503.323 785.107c3.817 0.142 7.642 0.142 11.458 0 21.896-0.804 43.706-8.046 73.069-24.881 29.928-17.156 65.315-42.822 114.834-78.8s84.867-61.705 110.43-84.863c25.089-22.725 38.716-41.227 46.247-61.805 1.313-3.588 2.495-7.224 3.539-10.898 6.006-21.073 5.856-44.056-1.081-77.181-7.072-33.766-20.546-75.353-39.46-133.567l-63.29-194.783c-6.362-19.584-24.614-32.847-45.207-32.847-26.252 0-47.537 21.285-47.537 47.537v101.089c0 54.156-43.904 98.062-98.062 98.062h-118.421c-54.156 0-98.062-43.904-98.062-98.062v-101.089c0-26.252-21.283-47.537-47.535-47.537-20.593 0-38.845 13.261-45.21 32.847l-63.288 194.783c-18.916 58.214-32.388 99.8-39.46 133.567-6.939 33.125-7.088 56.108-1.085 77.181 1.048 3.674 2.229 7.31 3.541 10.898 7.529 20.576 21.159 39.081 46.243 61.805 25.564 23.158 60.911 48.885 110.43 84.863s84.91 61.643 114.834 78.8c29.362 16.834 51.176 24.080 73.068 24.881z" />
<glyph unicode="&#xe924;" glyph-name="profile-circle-fill" d="M637.474 542.49c0-69.298-56.176-125.473-125.473-125.473v-57.91c101.283 0 183.387 82.104 183.387 183.387h-57.91zM512.001 417.015c-69.298 0-125.473 56.175-125.473 125.473h-57.91c0-101.283 82.106-183.387 183.387-183.387v57.91zM386.528 542.49c0 69.298 56.175 125.473 125.473 125.473v57.91c-101.281 0-183.387-82.106-183.387-183.387h57.91zM512.001 667.964c69.296 0 125.473-56.175 125.473-125.473h57.91c0 101.281-82.104 183.387-183.387 183.387v-57.91zM396.177 243.28h231.645v57.91h-231.645v-57.91zM154.882 426.667c0 197.232 159.888 357.118 357.118 357.118v57.91c-229.215 0-415.032-185.816-415.032-415.032h57.91zM512.001 783.785c197.23 0 357.118-159.888 357.118-357.118h57.91c0 229.215-185.815 415.032-415.032 415.032v-57.91zM869.118 426.667c0-101.279-42.121-192.669-109.881-257.698l40.098-41.784c78.665 75.496 127.693 181.788 127.693 299.482h-57.91zM759.239 168.969c-64.191-61.605-151.269-99.423-247.239-99.423v-57.91c111.505 0 212.793 44.014 287.335 115.55l-40.098 41.784zM627.823 243.28c60.844 0 111.634-43.34 123.064-100.845l56.798 11.29c-16.709 84.083-90.855 147.47-179.866 147.47v-57.91zM512.001 69.549c-95.968 0-183.043 37.815-247.239 99.423l-40.099-41.784c74.543-71.536 175.83-115.55 287.335-115.55v57.91zM264.761 168.969c-67.759 65.027-109.882 156.419-109.882 257.698h-57.91c0-117.694 49.028-223.986 127.694-299.482l40.099 41.784zM396.177 301.194c-89.013 0-163.156-63.386-179.866-147.47l56.799-11.29c11.43 57.505 62.217 100.845 123.063 100.845v57.91zM627.816 272.237h-231.642c-74.929 0-137.396-53.363-151.464-124.158 69.367-66.575 163.549-107.487 267.285-107.487 103.74 0 197.921 40.912 267.287 107.487-14.069 70.794-76.536 124.158-151.464 124.158zM779.279 148.080l20.048-20.894 11.444 10.982-3.092 15.554-28.399-5.645zM244.707 148.080l-28.399 5.645-3.091-15.554 11.443-10.982 20.048 20.894zM396.174 243.28h231.642v57.91h-231.642v-57.91zM759.232 168.969c-64.191-61.605-151.269-99.423-247.239-99.423v-57.91c111.505 0 212.793 44.014 287.335 115.55l-40.098 41.784zM627.816 243.28c60.848 0 111.639-43.34 123.064-100.845l56.798 11.29c-16.709 84.083-90.851 147.47-179.866 147.47v-57.91zM511.992 69.549c-95.967 0-183.041 37.815-247.237 99.423l-40.099-41.784c74.543-71.536 175.831-115.55 287.335-115.55v57.91zM396.174 301.194c-89.013 0-163.156-63.386-179.866-147.47l56.799-11.29c11.43 57.505 62.218 100.845 123.063 100.845v57.91zM666.431 542.49c0-85.288-69.142-154.43-154.43-154.43s-154.43 69.142-154.43 154.43c0 85.289 69.14 154.43 154.43 154.43 85.288 0 154.43-69.14 154.43-154.43zM637.474 542.49c0-69.298-56.176-125.473-125.473-125.473v-57.91c101.283 0 183.387 82.104 183.387 183.387h-57.91zM512.001 417.015c-69.298 0-125.473 56.175-125.473 125.473h-57.91c0-101.283 82.106-183.387 183.387-183.387v57.91zM386.528 542.49c0 69.298 56.175 125.473 125.473 125.473v57.91c-101.281 0-183.387-82.106-183.387-183.387h57.91zM512.001 667.964c69.296 0 125.473-56.175 125.473-125.473h57.91c0 101.281-82.104 183.387-183.387 183.387v-57.91z" />
<glyph unicode="&#xe925;" glyph-name="rotate-right" d="M909.247 408.424c0 22.67-18.379 41.047-41.047 41.047s-41.047-18.378-41.047-41.047h82.095zM722.29 700.317v0zM795.223 627.379l-32.816-24.657 1.675-2.231 1.964-1.983 29.177 28.87zM860.237 809.959c-0.098 22.67-18.56 40.966-41.227 40.865s-40.966-18.56-40.868-41.229l82.095 0.367zM819.512 737.324v0zM685.244 603.053v0zM612.978 644.424c-22.673 0.101-41.131-18.195-41.233-40.865s18.195-41.128 40.865-41.229l0.368 82.094zM804.61 630.894v0zM791.677 617.961v0zM798.552 624.016v0zM827.153 408.424c0-178.838-144.979-323.818-323.82-323.818v-82.095c224.18 0 405.915 181.731 405.915 405.913h-82.095zM503.332 84.605c-178.84 0-323.818 144.979-323.818 323.818h-82.095c0-224.183 181.735-405.913 405.913-405.913v82.095zM179.514 408.424c0 178.84 144.979 323.818 323.818 323.818v82.095c-224.18 0-405.913-181.735-405.913-405.913h82.095zM503.332 732.243c72.959 0 140.181-24.080 194.297-64.744l49.318 65.635c-67.854 50.979-152.264 81.204-243.613 81.204v-82.095zM697.63 667.499c24.525-18.424 46.356-40.252 64.778-64.777l65.638 49.313c-23.073 30.706-50.395 58.028-81.099 81.098l-49.318-65.635zM778.142 809.592l0.328-72.452 82.089 0.367-0.323 72.452-82.095-0.367zM685.429 644.1l-72.451 0.324-0.368-82.094 72.454-0.324 0.368 82.094zM778.471 737.14c0.131-29.854 0.153-48.778-1.38-62.833-1.444-13.231-3.83-16.855-4.941-18.292l64.921-50.244c14.181 18.323 19.379 39.024 21.629 59.624 2.157 19.774 1.987 44.187 1.86 72.11l-82.089-0.367zM685.064 562.007c27.924-0.125 52.333-0.295 72.106 1.863 20.601 2.25 41.306 7.446 59.628 21.628l-50.248 64.925c-1.434-1.112-5.062-3.497-18.291-4.941-14.054-1.536-32.975-1.513-62.83-1.381l-0.368-82.094zM772.15 656.017c-0.816-1.047-1.685-2.040-2.621-2.974l58.047-58.049c3.389 3.386 6.562 6.987 9.495 10.781l-64.921 50.244zM769.528 653.041c-0.936-0.934-1.926-1.809-2.977-2.619l50.248-64.924c3.792 2.936 7.394 6.108 10.776 9.494l-58.047 58.049zM766.048 598.509l3.328-3.362 58.359 57.74-3.328 3.362-58.359-57.74z" />
<glyph unicode="&#xe926;" glyph-name="sms" d="M502.559 137.955c-16.492 0-29.866-13.37-29.866-29.866s13.369-29.866 29.866-29.866v59.734zM882.79 470.495v0zM889.748 234.336v0zM802.103 133.684v0zM754.234 727.131v0zM839.125 653.221v0zM315.561 727.131v0zM157.425 474.6c-2.269-16.34 9.138-31.421 25.472-33.689s31.421 9.138 33.689 25.472l-59.168 8.218zM230.676 653.221v0zM248.479 596.438l21.119 21.119-0.375 0.375-0.387 0.363-20.356-21.857zM845.827 630.611v0zM811.657 596.438v0zM129.424 217.6c-16.494 0-29.866-13.37-29.866-29.866s13.369-29.866 29.866-29.866v59.734zM368.355 157.866c16.494 0 29.866 13.37 29.866 29.866s-13.37 29.866-29.866 29.866v-59.734zM129.424 337.069c-16.494 0-29.866-13.37-29.866-29.866s13.369-29.866 29.866-29.866v59.734zM248.888 277.335c16.494 0 29.866 13.37 29.866 29.866s-13.37 29.866-29.866 29.866v-59.734zM502.559 715.379h64.679v59.734h-64.679v-59.734zM567.238 137.955h-64.679v-59.734h64.679v59.734zM853.207 466.382c8.758-63.052 15.035-108.461 16.91-144.217 1.859-35.463-0.863-58.335-8.162-76.902l55.591-21.86c11.796 29.996 14.282 62.673 12.226 101.88-2.038 38.915-8.784 87.301-17.4 149.313l-59.166-8.218zM567.238 78.22c62.604 0 111.458-0.025 150.286 3.308 39.117 3.359 71.141 10.315 99.234 26.125l-29.301 52.056c-17.387-9.785-39.666-15.624-75.044-18.663-35.673-3.064-81.515-3.092-145.172-3.092v-59.734zM861.948 245.269c-14.251-36.236-40.56-66.459-74.495-85.56l29.301-52.056c45.91 25.841 81.51 66.728 100.786 115.756l-55.591 21.86zM567.238 715.379c49.618 0 85.155-0.022 113.27-2.179 27.742-2.13 46.003-6.215 61.277-13.221l24.893 54.301c-24.231 11.111-50.308 16.080-81.605 18.48-30.927 2.373-69.131 2.351-117.838 2.351v-59.734zM741.784 699.983c29.596-13.565 54.647-35.382 72.157-62.827l50.361 32.125c-23.692 37.134-57.585 66.649-97.624 85.002l-24.893-54.301zM502.559 775.114c-48.703 0-86.91 0.022-117.838-2.351-31.299-2.4-57.371-7.369-81.606-18.48l24.893-54.301c15.278 7.001 33.541 11.092 61.279 13.221 28.115 2.157 63.65 2.179 113.265 2.179v59.734zM216.593 466.382c10.662 76.774 16.684 118.671 28.249 148.643l-55.726 21.504c-14.676-38.023-21.475-88.425-31.684-161.93l59.168-8.218zM244.837 615.026c3.251 8.421 6.858 15.615 11.017 22.13l-50.361 32.125c-6.525-10.229-11.866-21.038-16.384-32.751l55.726-21.504zM303.115 754.283c-40.041-18.353-73.934-47.865-97.621-85.002l50.361-32.125c17.508 27.448 42.56 49.26 72.153 62.827l-24.893 54.301zM268.833 618.295l-31.505 29.343-40.711-43.715 31.505-29.343 40.711 43.715zM824.708 651.73l-34.178-34.173 42.24-42.238 34.172 34.173-42.234 42.238zM227.36 575.319c65.773-65.773 117.185-117.272 162.644-151.959 46.15-35.211 89.665-55.901 140.061-55.901v59.734c-32.082 0-62.99 12.498-103.825 43.655-41.528 31.683-89.674 79.74-156.642 146.708l-42.238-42.238zM790.534 617.557c-66.964-66.968-115.113-115.025-156.642-146.708-40.84-31.156-71.745-43.655-103.824-43.655v-59.734c50.392 0 93.909 20.686 140.059 55.901 45.463 34.684 96.871 86.184 162.645 151.959l-42.24 42.238zM129.424 157.866h238.934v59.734h-238.934v-59.734zM129.424 277.335h119.469v59.734h-119.469v-59.734zM912.37 474.6c-11.033 79.438-18.047 132.103-35.746 171.722l-54.536-24.371c13.37-29.923 19.522-72.049 31.123-155.568l59.166 8.218zM876.619 646.322c-3.602 8.049-7.662 15.661-12.318 22.959l-50.361-32.125c2.981-4.674 5.666-9.678 8.142-15.205l54.536 24.371zM866.946 609.492l3.523 3.525-42.234 42.238-3.523-3.525 42.234-42.238z" />
<glyph unicode="&#xe927;" glyph-name="call" d="M347.955 807.437c-44.389 40.787-112.616 40.787-157.006 0-1.819-1.67-3.759-3.612-6.279-6.133l-37.866-37.866c-38.104-38.104-54.097-93.031-42.408-145.634 66.323-298.451 299.407-531.535 597.856-597.856 52.603-11.688 107.535 4.305 145.641 42.407l37.859 37.863c2.525 2.518 4.468 4.461 6.138 6.278 40.787 44.389 40.787 112.617 0 157.009-1.67 1.82-3.612 3.761-6.138 6.282l-61.989 61.99c-43.035 43.040-108.035 55.349-163.831 31.026-31.944-13.923-69.153-6.877-93.794 17.764l-101.123 101.123c-24.64 24.64-31.687 61.85-17.763 93.794 24.32 55.795 12.011 120.792-31.026 163.831l-61.994 61.993c-2.52 2.52-4.46 4.461-6.279 6.134zM233.769 760.835c20.177 18.539 51.188 18.539 71.367 0 0.697-0.64 1.608-1.543 4.819-4.751l61.522-61.522c24.64-24.64 31.686-61.85 17.763-93.794-24.32-55.795-12.011-120.792 31.026-163.831l101.124-101.123c43.040-43.040 108.034-55.349 163.831-31.026 31.943 13.923 69.155 6.877 93.793-17.763l61.52-61.52c3.215-3.207 4.112-4.127 4.752-4.823 18.542-20.177 18.542-51.187 0-71.368-0.64-0.697-1.545-1.608-4.752-4.816l-37.397-37.397c-22.801-22.801-55.674-32.377-87.15-25.377-274.467 60.99-488.816 275.341-549.81 549.806-6.996 31.481 2.576 64.353 25.378 87.155l37.397 37.397c3.208 3.208 4.123 4.112 4.819 4.751z" />
<glyph unicode="&#xe928;" glyph-name="time-circle" d="M280.115 801.343c12.541 10.032 14.572 28.33 4.54 40.87s-28.33 14.572-40.87 4.54l-96.922-77.539c-12.541-10.032-14.572-28.33-4.54-40.87s28.33-14.572 40.87-4.54l96.922 77.538zM784.11 846.754c-12.538 10.032-30.838 7.998-40.87-4.54-10.030-12.54-7.997-30.838 4.543-40.87l96.922-77.538c12.538-10.032 30.838-7.998 40.87 4.54 10.030 12.541 7.997 30.838-4.543 40.87l-96.922 77.539zM543.026 562.356c0 16.060-13.018 29.077-29.077 29.077s-29.077-13.018-29.077-29.077v-135.689c0-48.178 39.055-87.229 87.229-87.229h58.155c16.059 0 29.077 13.018 29.077 29.077s-13.018 29.077-29.077 29.077h-58.155c-16.059 0-29.077 13.018-29.077 29.077v135.689zM513.949 824.048c-230.173 0-416.767-186.593-416.767-416.765 0-230.175 186.593-416.767 416.767-416.767s416.767 186.592 416.767 416.767c0 230.172-186.592 416.765-416.767 416.765zM155.337 407.283c0 198.056 160.557 358.611 358.612 358.611s358.612-160.557 358.612-358.611c0-198.060-160.557-358.612-358.612-358.612s-358.612 160.555-358.612 358.612z" />
<glyph unicode="&#xe929;" glyph-name="tick-square" d="M760.122 538.244c12.331 13.775 11.164 34.938-2.611 47.272s-34.94 11.164-47.275-2.611l-150.382-167.972c-30.472-34.036-50.996-56.84-68.542-71.588-16.715-14.046-26.531-17.108-35.107-17.108s-18.39 3.062-35.107 17.108c-17.546 14.747-38.067 37.552-68.539 71.588l-38.796 43.333c-12.331 13.775-33.497 14.942-47.272 2.611s-14.942-33.497-2.611-47.27l40.455-45.185c28.382-31.705 52.053-58.148 73.685-76.326 22.881-19.233 47.562-32.814 78.185-32.814s55.304 13.577 78.182 32.814c21.632 18.181 45.305 44.624 73.685 76.324l152.049 169.827zM711.233 856.343c-50.979 5.523-115.236 5.522-197.216 5.522h-4.037c-81.978 0-146.234 0.001-197.214-5.522-52.026-5.637-94.176-17.346-130.168-43.494-21.789-15.831-40.951-34.993-56.782-56.782-26.148-35.992-37.857-78.143-43.494-130.168-5.523-50.98-5.522-115.238-5.522-197.214v-4.037c0-81.978-0.001-146.237 5.522-197.216 5.637-52.029 17.346-94.176 43.494-130.172 15.831-21.787 34.993-40.95 56.782-56.777 35.992-26.152 78.143-37.86 130.168-43.498 50.979-5.52 115.236-5.52 197.209-5.52h4.047c81.975 0 146.232 0 197.211 5.52 52.029 5.639 94.176 17.346 130.172 43.498 21.787 15.828 40.95 34.991 56.777 56.777 26.152 35.995 37.86 78.143 43.498 130.172 5.52 50.979 5.52 115.236 5.52 197.211v4.043c0 81.974 0 146.234-5.52 197.213-5.639 52.026-17.346 94.176-43.498 130.168-15.828 21.789-34.991 40.951-56.777 56.782-35.995 26.148-78.143 37.857-130.172 43.494zM221.952 758.684c22.674 16.472 51.699 26.079 98.027 31.098 46.954 5.088 107.59 5.132 192.021 5.132 84.433 0 145.067-0.047 192.023-5.132 46.327-5.019 75.349-14.622 98.025-31.098 16.105-11.7 30.267-25.863 41.967-41.969 16.474-22.674 26.077-51.699 31.099-98.027 5.089-46.954 5.132-107.59 5.132-192.021 0-84.433-0.045-145.067-5.132-192.023-5.022-46.327-14.622-75.349-31.099-98.025-11.7-16.105-25.861-30.267-41.967-41.967-22.674-16.474-51.698-26.077-98.025-31.099-46.956-5.089-107.59-5.132-192.023-5.132-84.431 0-145.068 0.045-192.021 5.132-46.328 5.022-75.35 14.622-98.027 31.099-16.105 11.7-30.266 25.861-41.969 41.967-16.472 22.674-26.079 51.698-31.098 98.025-5.088 46.956-5.132 107.59-5.132 192.023 0 84.431 0.047 145.068 5.132 192.021 5.019 46.328 14.622 75.35 31.098 98.027 11.7 16.105 25.863 30.266 41.969 41.969z" />
<glyph unicode="&#xe92a;" glyph-name="tooth" d="M696.047 11.377c-66.068 0-84.944 75.506-103.824 160.454-18.876 66.068-37.755 151.012-80.227 151.012s-61.349-84.944-80.227-151.012c-18.876-80.227-42.472-160.454-103.824-160.454-89.665 0-99.103 127.419-108.54 240.677-4.721 37.755-4.721 75.506-9.438 99.103-9.438 28.314-18.876 56.631-28.314 80.227-18.876 47.193-37.755 94.384-37.755 174.609 0 141.575 61.349 235.96 160.454 235.96 47.193 0 75.506-9.438 103.824-23.596 0 0 0 0 0 0v0c28.314-14.159 56.631-23.596 103.824-23.596s75.506 9.438 103.824 23.596c28.314 9.438 56.631 23.596 103.824 23.596 94.384 0 160.454-94.384 160.454-235.96 0-75.506-18.876-127.419-37.755-174.609-9.438-23.596-18.876-47.193-28.314-80.227-4.721-23.596-9.438-61.349-9.438-99.103-9.438-113.261-14.159-240.677-108.54-240.677zM511.999 393.633c94.384 0 127.419-113.261 151.012-207.643 9.438-37.755 23.596-99.103 37.755-103.824 23.596 0 33.034 132.137 33.034 174.609 4.721 42.472 4.721 80.227 14.159 113.261s18.876 61.349 28.314 89.665c18.876 42.472 33.034 84.944 33.034 146.296 0 75.506-23.596 165.171-89.665 165.171-33.034 0-51.91-9.438-75.506-18.876-33.034-14.159-70.789-28.314-132.137-28.314s-99.103 14.159-127.419 28.314v0c-23.596 9.438-47.193 18.876-75.506 18.876-66.068 0-89.665-89.665-89.665-165.171 0-66.068 14.159-103.824 33.034-146.296 4.721-28.314 18.876-56.631 23.596-89.665 4.721-28.314 9.438-70.789 14.159-113.261s9.438-174.609 37.755-174.609c9.438 9.438 28.314 70.789 37.755 103.824 18.876 94.384 51.91 207.643 146.296 207.643z" />
<glyph unicode="&#xe92b;" glyph-name="mandible" d="M136.534 597.334c-51.627 0-93.867-41.89-93.867-93.090v-31.031c0-119.744 98.278-217.212 219.022-217.212h500.624c120.742 0 219.021 97.468 219.021 217.212v31.031c0 51.2-42.24 93.090-93.867 93.090-24.094 0-45.995-9.289-62.579-24.183-16.58 14.895-38.485 24.183-62.575 24.183h-31.292c-24.090 0-45.995-9.289-62.575-24.183-16.585 14.895-38.485 24.183-62.579 24.183h-31.287c-24.094 0-45.995-9.289-62.579-24.183-16.585 14.895-38.485 24.183-62.579 24.183h-31.287c-24.093 0-45.995-9.289-62.578-24.183-16.583 14.895-38.485 24.183-62.577 24.183h-31.289c-24.092 0-45.995-9.289-62.577-24.183-16.583 14.895-38.485 24.183-62.578 24.183zM136.534 535.275c17.209 0 31.289-13.965 31.289-31.031s-14.080-31.031-31.289-31.031c-17.209 0-31.289 13.965-31.289 31.031s14.080 31.031 31.289 31.031zM261.69 535.275h31.289c17.209 0 31.289-13.965 31.289-31.031v-31.031c0-17.067-14.080-31.031-31.289-31.031-34.418 0-62.578 27.93-62.578 62.063 0 17.067 14.080 31.031 31.289 31.031zM418.134 535.275h31.287c17.212 0 31.292-13.965 31.292-31.031v-31.031c0-17.067-14.080-31.031-31.292-31.031h-31.287c-17.209 0-31.289 13.965-31.289 31.031v31.031c0 17.067 14.080 31.031 31.289 31.031zM574.58 535.275h31.287c17.207 0 31.287-13.965 31.287-31.031v-31.031c0-17.067-14.080-31.031-31.287-31.031h-31.287c-17.212 0-31.292 13.965-31.292 31.031v31.031c0 17.067 14.080 31.031 31.292 31.031zM731.022 535.275h31.292c17.207 0 31.287-13.965 31.287-31.031 0-34.133-28.16-62.063-62.579-62.063-17.207 0-31.287 13.965-31.287 31.031v31.031c0 17.067 14.080 31.031 31.287 31.031zM887.468 535.275c17.207 0 31.287-13.965 31.287-31.031s-14.080-31.031-31.287-31.031c-17.207 0-31.287 13.965-31.287 31.031s14.080 31.031 31.287 31.031zM192.879 430.362c23.154-30.409 59.112-50.24 100.1-50.24 24.092 0 45.995 9.289 62.577 24.183 16.583-14.895 38.485-24.183 62.578-24.183h31.287c24.094 0 45.995 9.289 62.579 24.183 16.585-14.895 38.485-24.183 62.579-24.183h31.287c24.094 0 45.995 9.289 62.579 24.183 16.58-14.895 38.485-24.183 62.575-24.183 40.99 0 76.949 19.831 100.1 50.24 15.646-12.1 35.068-19.209 56.346-19.209 6.519 0 12.911 0.666 19.068 1.937-23.727-55.787-79.437-95.031-144.222-95.031h-500.624c-64.785 0-120.495 39.245-144.222 95.031 6.156-1.271 12.546-1.937 19.067-1.937 21.277 0 40.7 7.108 56.344 19.209z" />
<glyph unicode="&#xe92c;" glyph-name="mouth" d="M336 746.668c-145.552 0-264-117.44-264-261.82v-29.088c0-22.4 8.858-42.688 22.974-58.184-14.116-15.492-22.974-35.784-22.974-58.18v-29.092c0-112.26 92.107-203.636 205.333-203.636h469.335c113.224 0 205.332 91.376 205.332 203.636v29.092c0 22.396-8.856 42.688-22.972 58.18 14.116 15.496 22.972 35.784 22.972 58.184v29.088c0 144.38-118.448 261.82-264 261.82h-352zM336 688.486h352c82.096 0 152.908-48.123 185.74-117.329-3.236 0.361-6.412 0.966-9.74 0.966-17.892 0-34.34-5.243-48.124-14.261-18.48 26.182-49.264 43.353-83.876 43.353-22.292 0-42.808-7.278-59.528-19.205-18.184 28.8-50.472 48.295-87.14 48.295-28.744 0-54.56-11.943-73.332-30.852-18.772 18.909-44.588 30.852-73.332 30.852-36.668 0-68.955-19.495-87.142-48.295-16.72 11.927-37.233 19.205-59.526 19.205-34.613 0-65.394-17.171-83.874-43.353-13.787 9.018-30.232 14.261-48.126 14.261-3.328 0-6.504-0.605-9.74-0.966 32.831 69.206 103.643 117.329 185.739 117.329zM438.668 572.122c24.344 0 44-19.491 44-43.636v-72.726c0-16-13.2-29.092-29.336-29.092h-29.332c-16.133 0-29.333 13.092-29.333 29.092v72.726c0 24.145 19.653 43.636 44.002 43.636zM585.332 572.122c24.348 0 44-19.491 44-43.636v-72.726c0-16-13.2-29.092-29.332-29.092h-29.332c-16.136 0-29.336 13.092-29.336 29.092v72.726c0 24.145 19.656 43.636 44 43.636zM292 543.031c24.347 0 44-19.491 44-43.636v-43.636c0-16-13.2-29.092-29.333-29.092h-29.333c-16.133 0-29.333 13.092-29.333 29.092v43.636c0 24.144 19.653 43.636 44 43.636zM732 543.031c24.348 0 44-19.491 44-43.636v-43.636c0-16-13.2-29.092-29.332-29.092h-29.336c-16.132 0-29.332 13.092-29.332 29.092v43.636c0 24.144 19.652 43.636 44 43.636zM160 513.941c16.133 0 29.333-13.093 29.333-29.093v-29.088c0-16-13.2-29.092-29.333-29.092s-29.333 13.092-29.333 29.092v29.088c0 16 13.2 29.093 29.333 29.093zM864 513.941c16.132 0 29.332-13.093 29.332-29.093v-29.088c0-16-13.2-29.092-29.332-29.092s-29.332 13.092-29.332 29.092v29.088c0 16 13.2 29.093 29.332 29.093zM160 368.488c16.133 0 29.333-13.092 29.333-29.092s-13.2-29.092-29.333-29.092c-16.133 0-29.333 13.092-29.333 29.092s13.2 29.092 29.333 29.092zM277.333 368.488h29.333c16.133 0 29.333-13.092 29.333-29.092v-29.092c0-16-13.2-29.092-29.333-29.092-32.267 0-58.667 26.184-58.667 58.184 0 16 13.2 29.092 29.333 29.092zM424 368.488h29.332c16.136 0 29.336-13.092 29.336-29.092v-29.092c0-16-13.2-29.092-29.336-29.092h-29.332c-16.133 0-29.333 13.092-29.333 29.092v29.092c0 16 13.2 29.092 29.333 29.092zM570.668 368.488h29.332c16.132 0 29.332-13.092 29.332-29.092v-29.092c0-16-13.2-29.092-29.332-29.092h-29.332c-16.136 0-29.336 13.092-29.336 29.092v29.092c0 16 13.2 29.092 29.336 29.092zM717.332 368.488h29.336c16.132 0 29.332-13.092 29.332-29.092 0-32-26.4-58.184-58.668-58.184-16.132 0-29.332 13.092-29.332 29.092v29.092c0 16 13.2 29.092 29.332 29.092zM864 368.488c16.132 0 29.332-13.092 29.332-29.092s-13.2-29.092-29.332-29.092c-16.132 0-29.332 13.092-29.332 29.092s13.2 29.092 29.332 29.092zM212.823 270.132c21.707-28.508 55.418-47.1 93.844-47.1 22.586 0 43.12 8.708 58.666 22.672 15.547-13.964 36.080-22.672 58.667-22.672h29.332c22.588 0 43.12 8.708 58.668 22.672 15.548-13.964 36.080-22.672 58.668-22.672h29.332c22.588 0 43.12 8.708 58.668 22.672 15.544-13.964 36.080-22.672 58.664-22.672 38.428 0 72.14 18.592 93.844 47.1 14.668-11.344 32.876-18.008 52.824-18.008 6.112 0 12.104 0.624 17.876 1.816-22.244-52.3-74.472-89.092-135.208-89.092h-469.335c-60.736 0-112.964 36.792-135.208 89.092 5.77-1.192 11.761-1.816 17.874-1.816 19.947 0 38.156 6.664 52.823 18.008z" />
<glyph unicode="&#xe92d;" glyph-name="maxilla" d="M347.734 576.001c-135.876 0-246.4-92.746-246.4-206.77v-22.973c0-37.908 36.96-68.925 82.134-68.925 21.080 0 40.246 6.877 54.756 17.905 14.51-11.028 33.673-17.905 54.755-17.905h27.378c21.080 0 40.246 6.877 54.755 17.905 14.51-11.028 33.673-17.905 54.756-17.905h27.376c21.082 0 40.246 6.877 54.757 17.905 14.512-11.028 33.673-17.905 54.757-17.905h27.376c21.082 0 40.246 6.877 54.757 17.905 14.507-11.028 33.673-17.905 54.753-17.905h27.38c21.079 0 40.246 6.877 54.753 17.905 14.512-11.028 33.673-17.905 54.757-17.905 45.174 0 82.134 31.016 82.134 68.925v22.973c0 114.021-110.526 206.77-246.4 206.77h-328.534zM347.734 530.052h328.534c76.604 0 142.707-38.005 173.358-92.66-3.020 0.285-5.984 0.763-9.089 0.763-16.698 0-32.049-4.14-44.915-11.263-17.248 20.677-45.979 34.237-78.284 34.237-20.806 0-39.954-5.748-55.56-15.165-16.971 22.745-47.106 38.141-81.329 38.141-26.827 0-50.921-9.432-68.442-24.365-17.52 14.934-41.616 24.365-68.442 24.365-34.224 0-64.358-15.396-81.332-38.141-15.606 9.418-34.751 15.165-55.557 15.165-32.306 0-61.036-13.56-78.284-34.237-12.867 7.122-28.216 11.263-44.915 11.263-3.106 0-6.071-0.477-9.089-0.763 30.649 54.655 96.753 92.66 173.357 92.66zM443.558 438.155c22.721 0 41.065-15.393 41.065-34.461v-57.434c0-12.638-12.32-22.975-27.38-22.975h-27.376c-15.058 0-27.378 10.337-27.378 22.975v57.434c0 19.068 18.343 34.461 41.068 34.461zM580.442 438.155c22.725 0 41.065-15.393 41.065-34.461v-57.434c0-12.638-12.32-22.975-27.376-22.975h-27.376c-15.060 0-27.38 10.337-27.38 22.975v57.434c0 19.068 18.345 34.461 41.065 34.461zM306.666 415.181c22.724 0 41.065-15.393 41.065-34.462v-34.46c0-12.638-12.32-22.975-27.378-22.975h-27.378c-15.058 0-27.378 10.337-27.378 22.975v34.46c0 19.069 18.343 34.462 41.065 34.462zM717.334 415.181c22.725 0 41.065-15.393 41.065-34.462v-34.46c0-12.638-12.32-22.975-27.376-22.975h-27.38c-15.056 0-27.376 10.337-27.376 22.975v34.46c0 19.069 18.342 34.462 41.065 34.462zM183.466 392.206c15.058 0 27.378-10.338 27.378-22.974v-22.973c0-12.638-12.32-22.975-27.378-22.975s-27.378 10.337-27.378 22.975v22.973c0 12.636 12.32 22.974 27.378 22.974zM840.534 392.206c15.056 0 27.376-10.338 27.376-22.974v-22.973c0-12.638-12.32-22.975-27.376-22.975s-27.376 10.337-27.376 22.975v22.973c0 12.636 12.32 22.974 27.376 22.974z" />
<glyph unicode="&#xe92e;" glyph-name="warning" d="M543.836 638.906c0 17.584-14.253 31.836-31.836 31.836s-31.836-14.252-31.836-31.836v-254.688c0-17.583 14.252-31.836 31.836-31.836s31.836 14.253 31.836 31.836v254.688zM701.467 835.279c-48.48 5.252-109.587 5.251-187.549 5.251h-3.839c-77.959 0-139.066 0.001-187.547-5.251-49.476-5.361-89.56-16.496-123.787-41.362-20.721-15.055-38.944-33.278-53.999-53.999-24.866-34.228-36.001-74.312-41.362-123.787-5.252-48.481-5.251-109.589-5.251-187.547v-3.839c0-77.959-0.001-139.069 5.251-187.549 5.361-49.479 16.496-89.56 41.362-123.791 15.055-20.719 33.278-38.943 53.999-53.994 34.228-24.87 74.312-36.004 123.787-41.366 48.48-5.249 109.587-5.249 187.542-5.249h3.849c77.957 0 139.064 0 187.544 5.249 49.479 5.363 89.56 16.496 123.791 41.366 20.719 15.052 38.943 33.276 53.994 53.994 24.87 34.231 36.004 74.312 41.366 123.791 5.249 48.48 5.249 109.587 5.249 187.544v3.845c0 77.956 0 139.066-5.249 187.546-5.363 49.476-16.496 89.56-41.366 123.787-15.052 20.721-33.276 38.944-53.994 53.999-34.231 24.866-74.312 36.001-123.791 41.362zM236.17 742.408c21.563 15.665 49.165 24.801 93.222 29.574 44.652 4.839 102.316 4.88 182.608 4.88 80.294 0 137.956-0.045 182.61-4.88 44.056-4.773 71.655-13.905 93.22-29.574 15.316-11.126 28.783-24.595 39.91-39.912 15.666-21.563 24.799-49.165 29.575-93.222 4.84-44.652 4.88-102.316 4.88-182.608 0-80.294-0.043-137.956-4.88-182.61-4.776-44.056-13.905-71.655-29.575-93.22-11.126-15.316-24.593-28.783-39.91-39.91-21.563-15.666-49.164-24.799-93.22-29.575-44.654-4.84-102.316-4.88-182.61-4.88-80.292 0-137.957 0.043-182.608 4.88-44.057 4.776-71.656 13.905-93.222 29.575-15.316 11.126-28.782 24.593-39.912 39.91-15.665 21.563-24.801 49.164-29.574 93.22-4.839 44.654-4.88 102.316-4.88 182.61 0 80.292 0.045 137.957 4.88 182.608 4.773 44.057 13.905 71.656 29.574 93.222 11.126 15.316 24.595 28.782 39.912 39.912zM554.448 256.874c0-23.445-19.002-42.448-42.448-42.448s-42.448 19.002-42.448 42.448 19.003 42.448 42.448 42.448c23.445 0 42.448-19.002 42.448-42.448z" />
<glyph unicode="&#xe92f;" glyph-name="card-line" d="M559.138 226.339c-19.525 0-35.351-15.827-35.351-35.351s15.826-35.351 35.351-35.351h188.544c19.529 0 35.351 15.826 35.351 35.351s-15.824 35.351-35.351 35.351h-188.544zM716.81 835.785c-40.744 3.329-91.436 3.329-156.092 3.329h-97.436c-64.66 0-115.352 0-156.092-3.329-41.486-3.391-75.759-10.407-106.783-26.212-50.998-25.985-92.461-67.447-118.445-118.445-22.756-44.663-27.627-97.093-29.013-169.505-0.528-27.54-0.528-58.901-0.528-94.678v-1.854c0-64.66 0-115.352 3.329-156.092 3.391-41.486 10.407-75.759 26.212-106.784 25.985-50.994 67.447-92.462 118.445-118.446 31.020-15.804 65.296-22.823 106.783-26.209 40.743-3.331 91.435-3.331 156.088-3.331h97.441c64.658 0 115.352 0 156.091 3.331 41.489 3.387 75.758 10.409 106.786 26.209 50.999 25.984 92.461 67.452 118.445 118.446 15.804 31.021 22.823 65.297 26.209 106.784 3.331 40.743 3.331 91.434 3.331 156.088v1.859c0 35.776 0 67.137-0.532 94.677-1.385 72.413-6.256 124.845-29.010 169.505-25.984 50.998-67.444 92.461-118.445 118.445-31.024 15.805-65.297 22.823-106.786 26.212zM232.508 746.573c19.393 9.881 43.326 15.708 80.439 18.742 37.528 3.064 85.336 3.093 151.916 3.093h94.274c66.58 0 114.389-0.029 151.916-3.093 37.113-3.032 61.047-8.861 80.441-18.742 37.691-19.208 68.335-49.852 87.548-87.549 11.977-23.506 17.712-52.868 20.152-102.732h-774.387c2.446 49.864 8.176 79.226 20.155 102.732 19.208 37.693 49.851 68.341 87.549 87.549zM123.123 426.668c0 21.435 0.001 40.976 0.107 58.919h777.538c0.106-17.946 0.106-37.483 0.106-58.919 0-66.58-0.029-114.389-3.098-151.916-3.026-37.113-8.86-61.046-18.737-80.44-19.209-37.693-49.853-68.337-87.548-87.55-19.395-9.877-43.328-15.709-80.441-18.737-37.528-3.067-85.336-3.098-151.916-3.098h-94.274c-66.58 0-114.389 0.029-151.916 3.098-37.113 3.026-61.046 8.86-80.439 18.737-37.694 19.209-68.341 49.853-87.549 87.55-9.882 19.394-15.708 43.327-18.743 80.44-3.064 37.528-3.093 85.336-3.093 151.916z" />
<glyph unicode="&#xe930;" glyph-name="money" d="M768 85.333h-512c-93.867 0-170.667 76.8-170.667 170.667v341.333c0 93.867 76.8 170.667 170.667 170.667h512c93.867 0 170.667-76.8 170.667-170.667v-341.333c0-93.867-76.8-170.667-170.667-170.667zM256 703.999c-59.733 0-106.667-46.933-106.667-106.667v-341.333c0-59.733 46.933-106.667 106.667-106.667h512c59.733 0 106.667 46.933 106.667 106.667v341.333c0 59.733-46.933 106.667-106.667 106.667h-512zM896 563.199h-42.667c-64 0-119.467 51.2-119.467 119.467v42.667c0 17.067 12.8 34.133 34.133 34.133s34.133-12.8 34.133-34.133v-42.667c0-29.867 25.6-51.2 51.2-51.2h42.667c17.067 0 34.133-12.8 34.133-34.133s-17.067-34.133-34.133-34.133zM768 93.866c-17.067 0-34.133 12.8-34.133 34.133v42.667c0 64 51.2 119.467 119.467 119.467h42.667c17.067 0 34.133-12.8 34.133-34.133s-12.8-34.133-34.133-34.133h-42.667c-29.867 0-51.2-25.6-51.2-51.2v-42.667c0-17.067-17.067-34.133-34.133-34.133zM256 93.866c-17.067 0-34.133 12.8-34.133 34.133v42.667c0 29.867-25.6 51.2-51.2 51.2h-42.667c-17.067 0-34.133 12.8-34.133 34.133s12.8 34.133 34.133 34.133h42.667c64 0 119.467-51.2 119.467-119.467v-42.667c0-17.067-17.067-34.133-34.133-34.133zM170.667 563.199h-42.667c-17.067 0-34.133 17.067-34.133 34.133s17.067 34.133 34.133 34.133h42.667c29.867 0 51.2 25.6 51.2 51.2v42.667c0 17.067 12.8 34.133 34.133 34.133s34.133-17.067 34.133-34.133v-42.667c0-64-55.467-119.467-119.467-119.467zM512 298.666c-72.533 0-128 55.467-128 128s55.467 128 128 128c72.533 0 128-55.467 128-128s-55.467-128-128-128zM512 490.666c-34.133 0-64-29.867-64-64s29.867-64 64-64c34.133 0 64 29.867 64 64s-29.867 64-64 64z" />
</font>
</defs>
</svg>
